# WaveFront *.obj file (generated by Autodesk ATF)

mtllib barn door.mtl

g Solid1

v 0.000000 0.000000 0.000000
v 0.000000 0.000000 0.100000
v 0.000000 1.000000 0.000000
v 0.000000 1.000000 0.100000
v 0.042496 0.059302 0.000000
v 0.042496 0.059302 0.100000
v 0.042496 0.936929 0.000000
v 0.042496 0.936929 0.100000
v 0.083914 0.034511 0.000000
v 0.083914 0.034511 0.100000
v 0.084450 0.961321 0.000000
v 0.084450 0.961321 0.100000
v 0.297676 0.498019 0.000000
v 0.297676 0.498019 0.100000
v 0.325589 0.450009 0.000000
v 0.325589 0.450009 0.100000
v 0.325750 0.546285 0.000000
v 0.325750 0.546285 0.100000
v 0.353663 0.498275 0.000000
v 0.353663 0.498275 0.100000
v 0.567157 0.034511 0.000000
v 0.567157 0.034511 0.100000
v 0.567157 0.961321 0.000000
v 0.567157 0.961321 0.100000
v 0.608880 0.059302 0.000000
v 0.608880 0.059302 0.100000
v 0.608880 0.937054 0.000000
v 0.608880 0.937054 0.100000
v 0.650000 0.000000 0.000000
v 0.650000 0.000000 0.100000
v 0.650000 1.000000 0.000000
v 0.650000 1.000000 0.100000
v 0.734743 0.000000 0.000000
v 0.734743 0.000000 0.100000
v 0.734743 1.000000 0.000000
v 0.734743 1.000000 0.100000
v 0.782418 0.059302 0.000000
v 0.782418 0.059302 0.100000
v 0.782418 0.939719 0.000000
v 0.782418 0.939719 0.100000
v 0.814207 0.034511 0.000000
v 0.814207 0.034511 0.100000
v 0.818651 0.961321 0.000000
v 0.818651 0.961321 0.100000
v 1.045331 0.498734 0.000000
v 1.045331 0.498734 0.100000
v 1.068601 0.459704 0.000000
v 1.068601 0.459704 0.100000
v 1.069931 0.539850 0.000000
v 1.069931 0.539850 0.100000
v 1.093200 0.500819 0.000000
v 1.093200 0.500819 0.100000
v 1.322098 0.034511 0.000000
v 1.322098 0.034511 0.100000
v 1.322098 0.961321 0.000000
v 1.322098 0.961321 0.100000
v 1.356430 0.059302 0.000000
v 1.356430 0.059302 0.100000
v 1.356430 0.940780 0.000000
v 1.356430 0.940780 0.100000
v 1.400000 0.000000 0.000000
v 1.400000 0.000000 0.100000
v 1.400000 1.000000 0.000000
v 1.400000 1.000000 0.100000
vt 0.000000 0.000000 0.000000
vt 2.236259 0.000000 0.000000
vt 2.236259 0.254000 0.000000
vt 0.000000 0.254000 0.000000
vt 0.000000 0.000000 0.000000
vt 1.300677 0.000000 0.000000
vt 1.300677 0.254000 0.000000
vt 0.000000 0.254000 0.000000
vt 0.000000 0.000000 0.000000
vt 1.304065 0.000000 0.000000
vt 1.304065 0.254000 0.000000
vt 0.000000 0.254000 0.000000
vt 0.000000 0.000000 0.000000
vt 2.238954 0.000000 0.000000
vt 2.238954 0.254000 0.000000
vt 0.000000 0.254000 0.000000
vt 0.000000 0.000000 0.000000
vt 1.302245 0.000000 0.000000
vt 1.302245 0.254000 0.000000
vt 0.000000 0.254000 0.000000
vt 0.000000 0.000000 0.000000
vt 1.305637 0.000000 0.000000
vt 1.305637 0.254000 0.000000
vt 0.000000 0.254000 0.000000
vt 0.000000 0.000000 0.000000
vt 1.246360 0.000000 0.000000
vt 1.246360 0.254000 0.000000
vt 0.000000 0.254000 0.000000
vt 0.000000 0.000000 0.000000
vt 1.247517 0.000000 0.000000
vt 1.247517 0.254000 0.000000
vt 0.000000 0.254000 0.000000
vt 0.000000 0.000000 0.000000
vt 1.278755 0.000000 0.000000
vt 1.278755 0.254000 0.000000
vt 0.000000 0.254000 0.000000
vt 0.000000 0.000000 0.000000
vt 1.257363 0.000000 0.000000
vt 1.257363 0.254000 0.000000
vt 0.000000 0.254000 0.000000
vt 0.000000 0.000000 0.000000
vt 1.258530 0.000000 0.000000
vt 1.258530 0.254000 0.000000
vt 0.000000 0.254000 0.000000
vt 0.000000 0.000000 0.000000
vt 1.290043 0.000000 0.000000
vt 1.290043 0.254000 0.000000
vt 0.000000 0.254000 0.000000
vt 0.000000 0.000000 0.000000
vt 2.540000 0.000000 0.000000
vt 2.540000 0.254000 0.000000
vt 0.000000 0.254000 0.000000
vt 0.000000 0.000000 0.000000
vt 1.689753 0.000000 0.000000
vt 1.689753 0.254000 0.000000
vt 0.000000 0.254000 0.000000
vt 0.000000 0.000000 0.000000
vt 2.540000 0.000000 0.000000
vt 2.540000 0.254000 0.000000
vt 0.000000 0.254000 0.000000
vt 0.000000 0.000000 0.000000
vt 1.689753 0.000000 0.000000
vt 1.689753 0.254000 0.000000
vt 0.000000 0.254000 0.000000
vt -0.844877 -1.270000 0.000000
vt 0.844877 -1.270000 0.000000
vt 0.844877 1.270000 0.000000
vt -0.844877 1.270000 0.000000
vt 0.647006 -1.182341 0.000000
vt -0.643037 -1.182341 0.000000
vt 0.003123 -0.102353 0.000000
vt -0.631748 1.171756 0.000000
vt 0.647006 1.171756 0.000000
vt 0.006501 0.101218 0.000000
vt 0.734210 -1.119372 0.000000
vt 0.065606 0.002081 0.000000
vt 0.734210 1.119582 0.000000
vt -0.723781 1.116887 0.000000
vt -0.055982 -0.003215 0.000000
vt -0.723781 -1.119372 0.000000
vt -0.844877 -1.270000 0.000000
vt 0.844877 -1.270000 0.000000
vt 0.844877 1.270000 0.000000
vt -0.844877 1.270000 0.000000
vt 0.643037 -1.182341 0.000000
vt -0.647006 -1.182341 0.000000
vt -0.003123 -0.102353 0.000000
vt -0.647006 1.171756 0.000000
vt 0.631748 1.171756 0.000000
vt -0.006501 0.101218 0.000000
vt -0.065606 0.002081 0.000000
vt -0.734210 -1.119372 0.000000
vt -0.734210 1.119582 0.000000
vt 0.055982 -0.003215 0.000000
vt 0.723781 1.116887 0.000000
vt 0.723781 -1.119372 0.000000
vt 0.000000 0.000000 0.000000
vt 2.229172 0.000000 0.000000
vt 2.229172 0.254000 0.000000
vt 0.000000 0.254000 0.000000
vt 0.000000 0.000000 0.000000
vt 1.289132 0.000000 0.000000
vt 1.289132 0.254000 0.000000
vt 0.000000 0.254000 0.000000
vt 0.000000 0.000000 0.000000
vt 1.289559 0.000000 0.000000
vt 1.289559 0.254000 0.000000
vt 0.000000 0.254000 0.000000
vt 0.000000 0.000000 0.000000
vt 2.229488 0.000000 0.000000
vt 2.229488 0.254000 0.000000
vt 0.000000 0.254000 0.000000
vt 0.000000 0.000000 0.000000
vt 1.289315 0.000000 0.000000
vt 1.289315 0.254000 0.000000
vt 0.000000 0.254000 0.000000
vt 0.000000 0.000000 0.000000
vt 1.289741 0.000000 0.000000
vt 1.289741 0.254000 0.000000
vt 0.000000 0.254000 0.000000
vt 0.000000 0.000000 0.000000
vt 1.220770 0.000000 0.000000
vt 1.220770 0.254000 0.000000
vt 0.000000 0.254000 0.000000
vt 0.000000 0.000000 0.000000
vt 1.220906 0.000000 0.000000
vt 1.220906 0.254000 0.000000
vt 0.000000 0.254000 0.000000
vt 0.000000 0.000000 0.000000
vt 1.227439 0.000000 0.000000
vt 1.227439 0.254000 0.000000
vt 0.000000 0.254000 0.000000
vt 0.000000 0.000000 0.000000
vt 1.219414 0.000000 0.000000
vt 1.219414 0.254000 0.000000
vt 0.000000 0.254000 0.000000
vt 0.000000 0.000000 0.000000
vt 1.219551 0.000000 0.000000
vt 1.219551 0.254000 0.000000
vt 0.000000 0.254000 0.000000
vt 0.000000 0.000000 0.000000
vt 1.226077 0.000000 0.000000
vt 1.226077 0.254000 0.000000
vt 0.000000 0.254000 0.000000
vt 0.000000 0.000000 0.000000
vt 2.540000 0.000000 0.000000
vt 2.540000 0.254000 0.000000
vt 0.000000 0.254000 0.000000
vt 0.000000 0.000000 0.000000
vt 1.651000 0.000000 0.000000
vt 1.651000 0.254000 0.000000
vt 0.000000 0.254000 0.000000
vt 0.000000 0.000000 0.000000
vt 2.540000 0.000000 0.000000
vt 2.540000 0.254000 0.000000
vt 0.000000 0.254000 0.000000
vt 0.000000 0.000000 0.000000
vt 1.651000 0.000000 0.000000
vt 1.651000 0.254000 0.000000
vt 0.000000 0.254000 0.000000
vt 0.825500 1.270000 0.000000
vt -0.825500 1.270000 0.000000
vt -0.825500 -1.270000 0.000000
vt 0.825500 -1.270000 0.000000
vt -0.610997 1.171756 0.000000
vt 0.615080 1.171756 0.000000
vt 0.001906 0.117564 0.000000
vt 0.615080 -1.182341 0.000000
vt -0.612359 -1.182341 0.000000
vt 0.001496 -0.126977 0.000000
vt 0.721054 -1.119372 0.000000
vt 0.072804 -0.004381 0.000000
vt 0.721054 1.110116 0.000000
vt -0.717561 1.109800 0.000000
vt -0.069402 -0.005032 0.000000
vt -0.717561 -1.119372 0.000000
vt 0.825500 1.270000 0.000000
vt -0.825500 1.270000 0.000000
vt -0.825500 -1.270000 0.000000
vt 0.825500 -1.270000 0.000000
vt -0.615080 1.171756 0.000000
vt 0.610997 1.171756 0.000000
vt -0.001906 0.117564 0.000000
vt 0.612359 -1.182341 0.000000
vt -0.615080 -1.182341 0.000000
vt -0.001496 -0.126977 0.000000
vt -0.072804 -0.004381 0.000000
vt -0.721054 -1.119372 0.000000
vt -0.721054 1.110116 0.000000
vt 0.069402 -0.005032 0.000000
vt 0.717561 1.109800 0.000000
vt 0.717561 -1.119372 0.000000
vn 2.540000 0.000000 0.000000
vn 2.540000 0.000000 0.000000
vn 2.540000 0.000000 0.000000
vn 2.540000 0.000000 0.000000
vn -2.179663 1.304097 0.000000
vn -2.179663 1.304097 0.000000
vn -2.179663 1.304097 0.000000
vn -2.179663 1.304097 0.000000
vn -2.181686 -1.300709 0.000000
vn -2.181686 -1.300709 0.000000
vn -2.181686 -1.300709 0.000000
vn -2.181686 -1.300709 0.000000
vn -2.540000 0.000000 0.000000
vn -2.540000 0.000000 0.000000
vn -2.540000 0.000000 0.000000
vn -2.540000 0.000000 0.000000
vn 2.179663 -1.304097 0.000000
vn 2.179663 -1.304097 0.000000
vn 2.179663 -1.304097 0.000000
vn 2.179663 -1.304097 0.000000
vn 2.181686 1.300709 0.000000
vn 2.181686 1.300709 0.000000
vn 2.181686 1.300709 0.000000
vn 2.181686 1.300709 0.000000
vn 2.181686 1.300709 0.000000
vn 2.181686 1.300709 0.000000
vn 2.181686 1.300709 0.000000
vn 2.181686 1.300709 0.000000
vn -2.179663 1.304097 0.000000
vn -2.179663 1.304097 0.000000
vn -2.179663 1.304097 0.000000
vn -2.179663 1.304097 0.000000
vn 0.000000 -2.540000 0.000000
vn 0.000000 -2.540000 0.000000
vn 0.000000 -2.540000 0.000000
vn 0.000000 -2.540000 0.000000
vn -2.181686 -1.300709 0.000000
vn -2.181686 -1.300709 0.000000
vn -2.181686 -1.300709 0.000000
vn -2.181686 -1.300709 0.000000
vn 2.179663 -1.304097 0.000000
vn 2.179663 -1.304097 0.000000
vn 2.179663 -1.304097 0.000000
vn 2.179663 -1.304097 0.000000
vn 0.000000 2.540000 0.000000
vn 0.000000 2.540000 0.000000
vn 0.000000 2.540000 0.000000
vn 0.000000 2.540000 0.000000
vn -2.540000 0.000000 0.000000
vn -2.540000 0.000000 0.000000
vn -2.540000 0.000000 0.000000
vn -2.540000 0.000000 0.000000
vn 0.000000 2.540000 0.000000
vn 0.000000 2.540000 0.000000
vn 0.000000 2.540000 0.000000
vn 0.000000 2.540000 0.000000
vn 2.540000 0.000000 0.000000
vn 2.540000 0.000000 0.000000
vn 2.540000 0.000000 0.000000
vn 2.540000 0.000000 0.000000
vn 0.000000 -2.540000 0.000000
vn 0.000000 -2.540000 0.000000
vn 0.000000 -2.540000 0.000000
vn 0.000000 -2.540000 0.000000
vn 0.000000 0.000000 2.540000
vn 0.000000 0.000000 2.540000
vn 0.000000 0.000000 2.540000
vn 0.000000 0.000000 2.540000
vn 0.000000 0.000000 2.540000
vn 0.000000 0.000000 2.540000
vn 0.000000 0.000000 2.540000
vn 0.000000 0.000000 2.540000
vn 0.000000 0.000000 2.540000
vn 0.000000 0.000000 2.540000
vn 0.000000 0.000000 2.540000
vn 0.000000 0.000000 2.540000
vn 0.000000 0.000000 2.540000
vn 0.000000 0.000000 2.540000
vn 0.000000 0.000000 2.540000
vn 0.000000 0.000000 2.540000
vn 0.000000 0.000000 -2.540000
vn 0.000000 0.000000 -2.540000
vn 0.000000 0.000000 -2.540000
vn 0.000000 0.000000 -2.540000
vn 0.000000 0.000000 -2.540000
vn 0.000000 0.000000 -2.540000
vn 0.000000 0.000000 -2.540000
vn 0.000000 0.000000 -2.540000
vn 0.000000 0.000000 -2.540000
vn 0.000000 0.000000 -2.540000
vn 0.000000 0.000000 -2.540000
vn 0.000000 0.000000 -2.540000
vn 0.000000 0.000000 -2.540000
vn 0.000000 0.000000 -2.540000
vn 0.000000 0.000000 -2.540000
vn 0.000000 0.000000 -2.540000
vn 2.540000 0.000000 0.000000
vn 2.540000 0.000000 0.000000
vn 2.540000 0.000000 0.000000
vn 2.540000 0.000000 0.000000
vn -2.195603 1.277078 0.000000
vn -2.195603 1.277078 0.000000
vn -2.195603 1.277078 0.000000
vn -2.195603 1.277078 0.000000
vn -2.195848 -1.276656 0.000000
vn -2.195848 -1.276656 0.000000
vn -2.195848 -1.276656 0.000000
vn -2.195848 -1.276656 0.000000
vn -2.540000 0.000000 0.000000
vn -2.540000 0.000000 0.000000
vn -2.540000 0.000000 0.000000
vn -2.540000 0.000000 0.000000
vn 2.195603 -1.277078 0.000000
vn 2.195603 -1.277078 0.000000
vn 2.195603 -1.277078 0.000000
vn 2.195603 -1.277078 0.000000
vn 2.195848 1.276656 0.000000
vn 2.195848 1.276656 0.000000
vn 2.195848 1.276656 0.000000
vn 2.195848 1.276656 0.000000
vn -2.195848 -1.276656 0.000000
vn -2.195848 -1.276656 0.000000
vn -2.195848 -1.276656 0.000000
vn -2.195848 -1.276656 0.000000
vn 2.195603 -1.277078 0.000000
vn 2.195603 -1.277078 0.000000
vn 2.195603 -1.277078 0.000000
vn 2.195603 -1.277078 0.000000
vn 0.000000 2.540000 0.000000
vn 0.000000 2.540000 0.000000
vn 0.000000 2.540000 0.000000
vn 0.000000 2.540000 0.000000
vn 2.195848 1.276656 0.000000
vn 2.195848 1.276656 0.000000
vn 2.195848 1.276656 0.000000
vn 2.195848 1.276656 0.000000
vn -2.195603 1.277078 0.000000
vn -2.195603 1.277078 0.000000
vn -2.195603 1.277078 0.000000
vn -2.195603 1.277078 0.000000
vn 0.000000 -2.540000 0.000000
vn 0.000000 -2.540000 0.000000
vn 0.000000 -2.540000 0.000000
vn 0.000000 -2.540000 0.000000
vn 2.540000 0.000000 0.000000
vn 2.540000 0.000000 0.000000
vn 2.540000 0.000000 0.000000
vn 2.540000 0.000000 0.000000
vn 0.000000 -2.540000 0.000000
vn 0.000000 -2.540000 0.000000
vn 0.000000 -2.540000 0.000000
vn 0.000000 -2.540000 0.000000
vn -2.540000 0.000000 0.000000
vn -2.540000 0.000000 0.000000
vn -2.540000 0.000000 0.000000
vn -2.540000 0.000000 0.000000
vn 0.000000 2.540000 0.000000
vn 0.000000 2.540000 0.000000
vn 0.000000 2.540000 0.000000
vn 0.000000 2.540000 0.000000
vn 0.000000 0.000000 2.540000
vn 0.000000 0.000000 2.540000
vn 0.000000 0.000000 2.540000
vn 0.000000 0.000000 2.540000
vn 0.000000 0.000000 2.540000
vn 0.000000 0.000000 2.540000
vn 0.000000 0.000000 2.540000
vn 0.000000 0.000000 2.540000
vn 0.000000 0.000000 2.540000
vn 0.000000 0.000000 2.540000
vn 0.000000 0.000000 2.540000
vn 0.000000 0.000000 2.540000
vn 0.000000 0.000000 2.540000
vn 0.000000 0.000000 2.540000
vn 0.000000 0.000000 2.540000
vn 0.000000 0.000000 2.540000
vn 0.000000 0.000000 -2.540000
vn 0.000000 0.000000 -2.540000
vn 0.000000 0.000000 -2.540000
vn 0.000000 0.000000 -2.540000
vn 0.000000 0.000000 -2.540000
vn 0.000000 0.000000 -2.540000
vn 0.000000 0.000000 -2.540000
vn 0.000000 0.000000 -2.540000
vn 0.000000 0.000000 -2.540000
vn 0.000000 0.000000 -2.540000
vn 0.000000 0.000000 -2.540000
vn 0.000000 0.000000 -2.540000
vn 0.000000 0.000000 -2.540000
vn 0.000000 0.000000 -2.540000
vn 0.000000 0.000000 -2.540000
vn 0.000000 0.000000 -2.540000
usemtl 191,191,191
f 37/1/1 39/2/2 38/4/4
f 38/4/4 39/2/2 40/3/3
f 45/5/5 37/6/6 46/8/8
f 46/8/8 37/6/6 38/7/7
f 39/9/9 45/10/10 40/12/12
f 40/12/12 45/10/10 46/11/11
f 59/13/13 57/14/14 60/16/16
f 60/16/16 57/14/14 58/15/15
f 51/17/17 59/18/18 52/20/20
f 52/20/20 59/18/18 60/19/19
f 57/21/21 51/22/22 58/24/24
f 58/24/24 51/22/22 52/23/23
f 49/25/25 43/26/26 50/28/28
f 50/28/28 43/26/26 44/27/27
f 55/29/29 49/30/30 56/32/32
f 56/32/32 49/30/30 50/31/31
f 43/33/33 55/34/34 44/36/36
f 44/36/36 55/34/34 56/35/35
f 47/37/37 53/38/38 48/40/40
f 48/40/40 53/38/38 54/39/39
f 41/41/41 47/42/42 42/44/44
f 42/44/44 47/42/42 48/43/43
f 53/45/45 41/46/46 54/48/48
f 54/48/48 41/46/46 42/47/47
f 35/49/49 33/50/50 36/52/52
f 36/52/52 33/50/50 34/51/51
f 63/53/53 35/54/54 64/56/56
f 64/56/56 35/54/54 36/55/55
f 61/57/57 63/58/58 62/60/60
f 62/60/60 63/58/58 64/59/59
f 33/61/61 61/62/62 34/64/64
f 34/64/64 61/62/62 62/63/63
f 62/66/66 42/70/70 34/65/65
f 34/65/65 42/70/70 38/80/80
f 34/65/65 38/80/80 40/78/78
f 64/67/67 58/75/75 62/66/66
f 62/66/66 58/75/75 54/69/69
f 62/66/66 54/69/69 42/70/70
f 36/68/68 44/72/72 64/67/67
f 64/67/67 44/72/72 56/73/73
f 64/67/67 56/73/73 60/77/77
f 60/77/77 56/73/73 52/76/76
f 52/76/76 56/73/73 50/74/74
f 52/76/76 50/74/74 46/79/79
f 46/79/79 50/74/74 44/72/72
f 46/79/79 44/72/72 40/78/78
f 40/78/78 44/72/72 36/68/68
f 40/78/78 36/68/68 34/65/65
f 38/80/80 42/70/70 48/71/71
f 54/69/69 52/76/76 48/71/71
f 48/71/71 52/76/76 46/79/79
f 48/71/71 46/79/79 38/80/80
f 58/75/75 52/76/76 54/69/69
f 64/67/67 60/77/77 58/75/75
f 33/82/82 41/85/85 61/81/81
f 61/81/81 41/85/85 53/86/86
f 61/81/81 53/86/86 57/92/92
f 57/92/92 53/86/86 51/91/91
f 51/91/91 53/86/86 47/87/87
f 51/91/91 47/87/87 45/94/94
f 45/94/94 47/87/87 37/96/96
f 37/96/96 47/87/87 41/85/85
f 37/96/96 41/85/85 33/82/82
f 37/96/96 33/82/82 39/95/95
f 39/95/95 33/82/82 35/83/83
f 39/95/95 35/83/83 43/89/89
f 43/89/89 35/83/83 63/84/84
f 43/89/89 63/84/84 55/88/88
f 55/88/88 63/84/84 59/93/93
f 55/88/88 59/93/93 51/91/91
f 59/93/93 63/84/84 57/92/92
f 57/92/92 63/84/84 61/81/81
f 39/95/95 43/89/89 45/94/94
f 45/94/94 43/89/89 49/90/90
f 45/94/94 49/90/90 51/91/91
f 51/91/91 49/90/90 55/88/88
f 5/97/97 7/98/98 6/100/100
f 6/100/100 7/98/98 8/99/99
f 13/101/101 5/102/102 14/104/104
f 14/104/104 5/102/102 6/103/103
f 7/105/105 13/106/106 8/108/108
f 8/108/108 13/106/106 14/107/107
f 27/109/109 25/110/110 28/112/112
f 28/112/112 25/110/110 26/111/111
f 19/113/113 27/114/114 20/116/116
f 20/116/116 27/114/114 28/115/115
f 25/117/117 19/118/118 26/120/120
f 26/120/120 19/118/118 20/119/119
f 15/121/121 21/122/122 16/124/124
f 16/124/124 21/122/122 22/123/123
f 9/125/125 15/126/126 10/128/128
f 10/128/128 15/126/126 16/127/127
f 21/129/129 9/130/130 22/132/132
f 22/132/132 9/130/130 10/131/131
f 17/133/133 11/134/134 18/136/136
f 18/136/136 11/134/134 12/135/135
f 23/137/137 17/138/138 24/140/140
f 24/140/140 17/138/138 18/139/139
f 11/141/141 23/142/142 12/144/144
f 12/144/144 23/142/142 24/143/143
f 29/145/145 31/146/146 30/148/148
f 30/148/148 31/146/146 32/147/147
f 1/149/149 29/150/150 2/152/152
f 2/152/152 29/150/150 30/151/151
f 3/153/153 1/154/154 4/156/156
f 4/156/156 1/154/154 2/155/155
f 31/157/157 3/158/158 32/160/160
f 32/160/160 3/158/158 4/159/159
f 4/162/162 12/165/165 32/161/161
f 32/161/161 12/165/165 24/166/166
f 32/161/161 24/166/166 28/173/173
f 28/173/173 24/166/166 20/172/172
f 20/172/172 24/166/166 18/167/167
f 20/172/172 18/167/167 14/175/175
f 14/175/175 18/167/167 12/165/165
f 14/175/175 12/165/165 8/174/174
f 8/174/174 12/165/165 4/162/162
f 8/174/174 4/162/162 2/163/163
f 30/164/164 10/169/169 2/163/163
f 2/163/163 10/169/169 6/176/176
f 2/163/163 6/176/176 8/174/174
f 32/161/161 28/173/173 30/164/164
f 30/164/164 28/173/173 26/171/171
f 30/164/164 26/171/171 22/168/168
f 22/168/168 26/171/171 20/172/172
f 22/168/168 20/172/172 16/170/170
f 16/170/170 20/172/172 14/175/175
f 16/170/170 14/175/175 10/169/169
f 10/169/169 14/175/175 6/176/176
f 22/168/168 10/169/169 30/164/164
f 31/178/178 11/182/182 3/177/177
f 3/177/177 11/182/182 7/191/191
f 3/177/177 7/191/191 1/180/180
f 1/180/180 7/191/191 5/192/192
f 1/180/180 5/192/192 9/184/184
f 9/184/184 5/192/192 13/190/190
f 9/184/184 13/190/190 15/186/186
f 15/186/186 13/190/190 19/187/187
f 15/186/186 19/187/187 21/185/185
f 21/185/185 19/187/187 25/188/188
f 21/185/185 25/188/188 29/179/179
f 29/179/179 25/188/188 27/189/189
f 29/179/179 27/189/189 31/178/178
f 31/178/178 27/189/189 23/181/181
f 31/178/178 23/181/181 11/182/182
f 21/185/185 29/179/179 9/184/184
f 9/184/184 29/179/179 1/180/180
f 7/191/191 11/182/182 13/190/190
f 13/190/190 11/182/182 17/183/183
f 13/190/190 17/183/183 19/187/187
f 19/187/187 17/183/183 23/181/181
f 19/187/187 23/181/181 27/189/189

# 64 vertices
# 192 texture params
# 192 normals
# 152 facets

# 1 groups
