# WaveFront *.obj file (generated by Autodesk ATF)

mtllib barn roof.mtl

g Solid1

v -0.341421 -0.141421 -3.200000
v -0.341421 -0.141421 0.000000
v -0.141421 -0.141421 -3.200000
v -0.141421 -0.141421 0.000000
v 0.707107 0.707107 -3.200000
v 0.707107 0.707107 0.000000
v 0.707107 0.907107 -3.200000
v 0.707107 0.907107 0.000000
v 2.292893 0.707107 -3.200000
v 2.292893 0.707107 0.000000
v 2.292893 0.907107 -3.200000
v 2.292893 0.907107 0.000000
v 3.000000 0.000000 -3.200000
v 3.000000 0.000000 0.000000
v 3.103071 -0.141421 -3.200000
v 3.103071 -0.141421 0.000000
v 3.303071 -0.141421 -3.200000
v 3.303071 -0.141421 0.000000
vt 0.000000 0.000000 0.000000
vt 0.508000 0.000000 0.000000
vt 0.508000 8.128000 0.000000
vt 0.000000 8.128000 0.000000
vt 0.000000 0.000000 0.000000
vt 3.048000 0.000000 0.000000
vt 3.048000 8.128000 0.000000
vt 0.000000 8.128000 0.000000
vt 0.000000 0.000000 0.000000
vt 4.027897 0.000000 0.000000
vt 4.027897 8.128000 0.000000
vt 0.000000 8.128000 0.000000
vt 0.000000 0.000000 0.000000
vt 2.540000 0.000000 0.000000
vt 2.540000 8.128000 0.000000
vt 0.000000 8.128000 0.000000
vt 0.000000 0.000000 0.000000
vt 0.444491 0.000000 0.000000
vt 0.444491 8.128000 0.000000
vt 0.000000 8.128000 0.000000
vt 0.000000 0.000000 0.000000
vt 0.508000 0.000000 0.000000
vt 0.508000 8.128000 0.000000
vt 0.000000 8.128000 0.000000
vt 0.000000 0.000000 0.000000
vt 3.698184 0.000000 0.000000
vt 3.698184 8.128000 0.000000
vt 0.000000 8.128000 0.000000
vt 0.000000 0.000000 0.000000
vt 4.027897 0.000000 0.000000
vt 4.027897 8.128000 0.000000
vt 0.000000 8.128000 0.000000
vt 0.000000 0.000000 0.000000
vt 3.766421 0.000000 0.000000
vt 3.766421 8.128000 0.000000
vt 0.000000 8.128000 0.000000
vt -1.965244 1.331631 0.000000
vt -4.628506 -1.331631 0.000000
vt -4.120506 -1.331631 0.000000
vt -1.965244 0.823631 0.000000
vt 2.062653 0.823631 0.000000
vt 3.858704 -0.972421 0.000000
vt 4.120506 -1.331631 0.000000
vt 4.628506 -1.331631 0.000000
vt 2.062653 1.331631 0.000000
vt 4.628506 -1.331631 0.000000
vt 1.965244 1.331631 0.000000
vt -2.062653 1.331631 0.000000
vt -4.628506 -1.331631 0.000000
vt -4.120506 -1.331631 0.000000
vt -3.858704 -0.972421 0.000000
vt -2.062653 0.823631 0.000000
vt 1.965244 0.823631 0.000000
vt 4.120506 -1.331631 0.000000
vn 0.000000 -2.540000 0.000000
vn 0.000000 -2.540000 0.000000
vn 0.000000 -2.540000 0.000000
vn 0.000000 -2.540000 0.000000
vn 1.796051 -1.796051 0.000000
vn 1.796051 -1.796051 0.000000
vn 1.796051 -1.796051 0.000000
vn 1.796051 -1.796051 0.000000
vn 0.000000 -2.540000 0.000000
vn 0.000000 -2.540000 0.000000
vn 0.000000 -2.540000 0.000000
vn 0.000000 -2.540000 0.000000
vn -1.796051 -1.796051 0.000000
vn -1.796051 -1.796051 0.000000
vn -1.796051 -1.796051 0.000000
vn -1.796051 -1.796051 0.000000
vn -2.052673 -1.496039 0.000000
vn -2.052673 -1.496039 0.000000
vn -2.052673 -1.496039 0.000000
vn -2.052673 -1.496039 0.000000
vn 0.000000 -2.540000 0.000000
vn 0.000000 -2.540000 0.000000
vn 0.000000 -2.540000 0.000000
vn 0.000000 -2.540000 0.000000
vn 1.829191 1.762288 0.000000
vn 1.829191 1.762288 0.000000
vn 1.829191 1.762288 0.000000
vn 1.829191 1.762288 0.000000
vn 0.000000 2.540000 0.000000
vn 0.000000 2.540000 0.000000
vn 0.000000 2.540000 0.000000
vn 0.000000 2.540000 0.000000
vn -1.796051 1.796051 0.000000
vn -1.796051 1.796051 0.000000
vn -1.796051 1.796051 0.000000
vn -1.796051 1.796051 0.000000
vn 0.000000 0.000000 2.540000
vn 0.000000 0.000000 2.540000
vn 0.000000 0.000000 2.540000
vn 0.000000 0.000000 2.540000
vn 0.000000 0.000000 2.540000
vn 0.000000 0.000000 2.540000
vn 0.000000 0.000000 2.540000
vn 0.000000 0.000000 2.540000
vn 0.000000 0.000000 2.540000
vn 0.000000 0.000000 -2.540000
vn 0.000000 0.000000 -2.540000
vn 0.000000 0.000000 -2.540000
vn 0.000000 0.000000 -2.540000
vn 0.000000 0.000000 -2.540000
vn 0.000000 0.000000 -2.540000
vn 0.000000 0.000000 -2.540000
vn 0.000000 0.000000 -2.540000
vn 0.000000 0.000000 -2.540000
usemtl 191,191,191
f 4/1/1 2/2/2 3/4/4
f 3/4/4 2/2/2 1/3/3
f 6/5/5 4/6/6 5/8/8
f 5/8/8 4/6/6 3/7/7
f 10/9/9 6/10/10 9/12/12
f 9/12/12 6/10/10 5/11/11
f 14/13/13 10/14/14 13/16/16
f 13/16/16 10/14/14 9/15/15
f 16/17/17 14/18/18 15/20/20
f 15/20/20 14/18/18 13/19/19
f 18/21/21 16/22/22 17/24/24
f 17/24/24 16/22/22 15/23/23
f 12/25/25 18/26/26 11/28/28
f 11/28/28 18/26/26 17/27/27
f 8/29/29 12/30/30 7/32/32
f 7/32/32 12/30/30 11/31/31
f 2/33/33 8/34/34 1/36/36
f 1/36/36 8/34/34 7/35/35
f 2/38/38 6/40/40 8/37/37
f 8/37/37 6/40/40 10/41/41
f 8/37/37 10/41/41 12/45/45
f 12/45/45 10/41/41 14/42/42
f 12/45/45 14/42/42 18/44/44
f 18/44/44 14/42/42 16/43/43
f 2/38/38 4/39/39 6/40/40
f 3/54/54 1/46/46 5/53/53
f 5/53/53 1/46/46 7/47/47
f 5/53/53 7/47/47 11/48/48
f 17/49/49 13/51/51 11/48/48
f 11/48/48 13/51/51 9/52/52
f 11/48/48 9/52/52 5/53/53
f 17/49/49 15/50/50 13/51/51

# 18 vertices
# 54 texture params
# 54 normals
# 32 facets

# 1 groups
