# WaveFront *.obj file (generated by Autodesk ATF)

mtllib barn dooooooor.mtl

g Solid1

v 0.000000 0.000000 0.000000
v 0.000000 0.000000 0.050000
v 0.000000 1.000000 0.000000
v 0.000000 1.000000 0.050000
v 0.650000 0.000000 0.000000
v 0.650000 0.000000 0.050000
v 0.650000 1.000000 0.000000
v 0.650000 1.000000 0.050000
v 0.735000 0.000000 0.000000
v 0.735000 0.000000 0.050000
v 0.735000 1.000000 0.000000
v 0.735000 1.000000 0.050000
v 1.400000 0.000000 0.000000
v 1.400000 0.000000 0.050000
v 1.400000 1.000000 0.000000
v 1.400000 1.000000 0.050000
vt 0.000000 0.000000 0.000000
vt 2.540000 0.000000 0.000000
vt 2.540000 0.127000 0.000000
vt 0.000000 0.127000 0.000000
vt 0.000000 0.000000 0.000000
vt 1.689100 0.000000 0.000000
vt 1.689100 0.127000 0.000000
vt 0.000000 0.127000 0.000000
vt 0.000000 0.000000 0.000000
vt 2.540000 0.000000 0.000000
vt 2.540000 0.127000 0.000000
vt 0.000000 0.127000 0.000000
vt 0.000000 0.000000 0.000000
vt 1.689100 0.000000 0.000000
vt 1.689100 0.127000 0.000000
vt 0.000000 0.127000 0.000000
vt -0.844550 -1.270000 0.000000
vt 0.844550 -1.270000 0.000000
vt 0.844550 1.270000 0.000000
vt -0.844550 1.270000 0.000000
vt -0.844550 -1.270000 0.000000
vt 0.844550 -1.270000 0.000000
vt 0.844550 1.270000 0.000000
vt -0.844550 1.270000 0.000000
vt 0.000000 0.000000 0.000000
vt 2.540000 0.000000 0.000000
vt 2.540000 0.127000 0.000000
vt 0.000000 0.127000 0.000000
vt 0.000000 0.000000 0.000000
vt 1.651000 0.000000 0.000000
vt 1.651000 0.127000 0.000000
vt 0.000000 0.127000 0.000000
vt 0.000000 0.000000 0.000000
vt 2.540000 0.000000 0.000000
vt 2.540000 0.127000 0.000000
vt 0.000000 0.127000 0.000000
vt 0.000000 0.000000 0.000000
vt 1.651000 0.000000 0.000000
vt 1.651000 0.127000 0.000000
vt 0.000000 0.127000 0.000000
vt 0.825500 1.270000 0.000000
vt -0.825500 1.270000 0.000000
vt -0.825500 -1.270000 0.000000
vt 0.825500 -1.270000 0.000000
vt 0.825500 1.270000 0.000000
vt -0.825500 1.270000 0.000000
vt -0.825500 -1.270000 0.000000
vt 0.825500 -1.270000 0.000000
vn -2.540000 0.000000 0.000000
vn -2.540000 0.000000 0.000000
vn -2.540000 0.000000 0.000000
vn -2.540000 0.000000 0.000000
vn 0.000000 2.540000 0.000000
vn 0.000000 2.540000 0.000000
vn 0.000000 2.540000 0.000000
vn 0.000000 2.540000 0.000000
vn 2.540000 0.000000 0.000000
vn 2.540000 0.000000 0.000000
vn 2.540000 0.000000 0.000000
vn 2.540000 0.000000 0.000000
vn 0.000000 -2.540000 0.000000
vn 0.000000 -2.540000 0.000000
vn 0.000000 -2.540000 0.000000
vn 0.000000 -2.540000 0.000000
vn 0.000000 0.000000 2.540000
vn 0.000000 0.000000 2.540000
vn 0.000000 0.000000 2.540000
vn 0.000000 0.000000 2.540000
vn 0.000000 0.000000 -2.540000
vn 0.000000 0.000000 -2.540000
vn 0.000000 0.000000 -2.540000
vn 0.000000 0.000000 -2.540000
vn 2.540000 0.000000 0.000000
vn 2.540000 0.000000 0.000000
vn 2.540000 0.000000 0.000000
vn 2.540000 0.000000 0.000000
vn 0.000000 -2.540000 0.000000
vn 0.000000 -2.540000 0.000000
vn 0.000000 -2.540000 0.000000
vn 0.000000 -2.540000 0.000000
vn -2.540000 0.000000 0.000000
vn -2.540000 0.000000 0.000000
vn -2.540000 0.000000 0.000000
vn -2.540000 0.000000 0.000000
vn 0.000000 2.540000 0.000000
vn 0.000000 2.540000 0.000000
vn 0.000000 2.540000 0.000000
vn 0.000000 2.540000 0.000000
vn 0.000000 0.000000 2.540000
vn 0.000000 0.000000 2.540000
vn 0.000000 0.000000 2.540000
vn 0.000000 0.000000 2.540000
vn 0.000000 0.000000 -2.540000
vn 0.000000 0.000000 -2.540000
vn 0.000000 0.000000 -2.540000
vn 0.000000 0.000000 -2.540000
usemtl 191,191,191
f 11/1/1 9/2/2 12/4/4
f 12/4/4 9/2/2 10/3/3
f 15/5/5 11/6/6 16/8/8
f 16/8/8 11/6/6 12/7/7
f 13/9/9 15/10/10 14/12/12
f 14/12/12 15/10/10 16/11/11
f 9/13/13 13/14/14 10/16/16
f 10/16/16 13/14/14 14/15/15
f 10/17/17 14/18/18 12/20/20
f 12/20/20 14/18/18 16/19/19
f 13/21/21 9/22/22 15/24/24
f 15/24/24 9/22/22 11/23/23
f 5/25/25 7/26/26 6/28/28
f 6/28/28 7/26/26 8/27/27
f 1/29/29 5/30/30 2/32/32
f 2/32/32 5/30/30 6/31/31
f 3/33/33 1/34/34 4/36/36
f 4/36/36 1/34/34 2/35/35
f 7/37/37 3/38/38 8/40/40
f 8/40/40 3/38/38 4/39/39
f 8/41/41 4/42/42 6/44/44
f 6/44/44 4/42/42 2/43/43
f 3/45/45 7/46/46 1/48/48
f 1/48/48 7/46/46 5/47/47

# 16 vertices
# 48 texture params
# 48 normals
# 24 facets

# 1 groups
