# WaveFront *.obj file (generated by Autodesk ATF)

mtllib lilypad.mtl

g Solid1

v -3.004841 0.000000 -0.068820
v -3.004841 1.000000 -0.068820
v -2.995417 0.000000 0.247346
v -2.995417 1.000000 0.247346
v -2.980925 0.000000 -0.384221
v -2.980925 1.000000 -0.384221
v -2.952756 0.000000 0.560763
v -2.952756 1.000000 0.560763
v -2.923933 0.000000 -0.695351
v -2.923933 1.000000 -0.695351
v -2.877332 0.000000 0.867946
v -2.877332 1.000000 0.867946
v -2.834499 0.000000 -0.998751
v -2.834499 1.000000 -0.998751
v -2.769986 0.000000 1.165480
v -2.769986 1.000000 1.165480
v -2.713618 0.000000 -1.291049
v -2.713618 1.000000 -1.291049
v -2.631908 0.000000 1.450058
v -2.631908 1.000000 1.450058
v -2.562633 0.000000 -1.568994
v -2.562633 1.000000 -1.568994
v -2.464635 0.000000 1.718516
v -2.464635 1.000000 1.718516
v -2.383222 0.000000 -1.829497
v -2.383222 1.000000 -1.829497
v -2.270026 0.000000 1.967870
v -2.270026 1.000000 1.967870
v -2.177381 0.000000 -2.069662
v -2.177381 1.000000 -2.069662
v -2.050245 0.000000 2.195348
v -2.050245 1.000000 2.195348
v -1.947397 0.000000 -2.286820
v -1.947397 1.000000 -2.286820
v -1.807735 0.000000 2.398421
v -1.807735 1.000000 2.398421
v -1.695827 0.000000 -2.478555
v -1.695827 1.000000 -2.478555
v -1.545191 0.000000 2.574831
v -1.545191 1.000000 2.574831
v -1.425468 0.000000 -2.642738
v -1.425468 1.000000 -2.642738
v -1.265532 0.000000 2.722618
v -1.265532 1.000000 2.722618
v -1.139325 0.000000 -2.777542
v -1.139325 1.000000 -2.777542
v -0.971867 0.000000 2.840139
v -0.971867 1.000000 2.840139
v -0.840579 0.000000 -2.881469
v -0.840579 1.000000 -2.881469
v -0.667461 0.000000 2.926086
v -0.667461 1.000000 2.926086
v -0.532551 0.000000 -2.953363
v -0.532551 1.000000 -2.953363
v -0.355698 0.000000 2.979506
v -0.355698 1.000000 2.979506
v -0.218666 0.000000 -2.992427
v -0.218666 1.000000 -2.992427
v -0.040043 0.000000 2.999803
v -0.040043 1.000000 2.999803
v 0.000000 0.000000 0.000000
v 0.000000 1.000000 0.000000
v 0.097588 0.000000 -2.998224
v 0.097588 1.000000 -2.998224
v 0.275994 0.000000 2.986752
v 0.275994 1.000000 2.986752
v 0.412694 0.000000 -2.970691
v 0.412694 1.000000 -2.970691
v 0.588901 0.000000 2.940499
v 0.588901 1.000000 2.940499
v 0.723150 0.000000 -2.910134
v 0.723150 1.000000 -2.910134
v 0.895198 0.000000 2.861557
v 0.895198 1.000000 2.861557
v 1.025504 0.000000 -2.817226
v 1.025504 1.000000 -2.817226
v 1.191482 0.000000 2.750804
v 1.191482 1.000000 2.750804
v 1.316396 0.000000 -2.692999
v 1.316396 1.000000 -2.692999
v 1.474457 0.000000 2.609471
v 1.474457 1.000000 2.609471
v 1.592590 0.000000 -2.538836
v 1.592590 1.000000 -2.538836
v 1.740979 0.000000 2.439130
v 1.740979 1.000000 2.439130
v 1.851018 0.000000 -2.356449
v 1.851018 1.000000 -2.356449
v 1.988084 0.000000 2.241674
v 1.988084 1.000000 2.241674
v 2.088807 0.000000 -2.147867
v 2.088807 1.000000 -2.147867
v 2.213026 0.000000 2.019297
v 2.213026 1.000000 2.019297
v 2.413304 0.000000 1.774473
v 2.413304 1.000000 1.774473
v 2.586691 0.000000 1.509923
v 2.586691 1.000000 1.509923
v 2.731260 0.000000 1.228588
v 2.731260 1.000000 1.228588
v 2.845404 0.000000 0.933594
v 2.845404 1.000000 0.933594
v 2.927854 0.000000 0.628222
v 2.927854 1.000000 0.628222
v 2.977694 0.000000 0.315867
v 2.977694 1.000000 0.315867
v 2.994369 0.000000 0.000000
v 2.994369 1.000000 0.000000
vt -7.610022 0.000000 0.000000
vt -0.000000 0.000000 0.000000
vt -0.000000 2.540000 0.000000
vt -7.610022 2.540000 0.000000
vt -7.605698 0.000000 0.000000
vt -0.000000 0.000000 0.000000
vt -0.000000 2.540000 0.000000
vt -7.605698 2.540000 0.000000
vt 5.455582 5.319871 0.000000
vt -0.000000 0.014302 0.000000
vt -0.000000 7.620000 0.000000
vt -0.802302 7.577645 0.000000
vt -1.595685 7.451053 0.000000
vt -2.371330 7.241630 0.000000
vt -3.120613 6.951703 0.000000
vt -3.835205 6.584497 0.000000
vt -4.507163 6.144094 0.000000
vt -5.129015 5.635388 0.000000
vt -5.693851 5.064036 0.000000
vt -6.195390 4.436388 0.000000
vt -6.628057 3.759423 0.000000
vt -6.987041 3.040666 0.000000
vt -7.268354 2.288106 0.000000
vt -7.468866 1.510111 0.000000
vt -7.586350 0.715328 0.000000
vt -7.619499 -0.087407 0.000000
vt -7.567944 -0.889171 0.000000
vt -7.432259 -1.681049 0.000000
vt -7.213952 -2.454241 0.000000
vt -6.915450 -3.200149 0.000000
vt -6.540071 -3.910482 0.000000
vt -6.091989 -4.577343 0.000000
vt -5.576184 -5.193320 0.000000
vt -4.998390 -5.751565 0.000000
vt -4.365031 -6.245871 0.000000
vt -3.683147 -6.670744 0.000000
vt -2.960319 -7.021461 0.000000
vt -2.204582 -7.294122 0.000000
vt -1.424338 -7.485697 0.000000
vt -0.628260 -7.594056 0.000000
vt 0.174803 -7.617995 0.000000
vt 0.975922 -7.557247 0.000000
vt 1.766192 -7.412487 0.000000
vt 2.536829 -7.185326 0.000000
vt 3.279263 -6.878287 0.000000
vt 3.985244 -6.494785 0.000000
vt 4.646922 -6.039083 0.000000
vt 5.256942 -5.516245 0.000000
vt 5.808522 -4.932086 0.000000
vt 6.295530 -4.293099 0.000000
vt 6.712554 -3.606386 0.000000
vt 7.054956 -2.879583 0.000000
vt 7.318931 -2.120768 0.000000
vt 7.501543 -1.338378 0.000000
vt 7.600763 -0.541109 0.000000
vt 7.615489 0.262176 0.000000
vt 7.545555 1.062545 0.000000
vt 7.391740 1.851103 0.000000
vt 7.155753 2.619083 0.000000
vt 6.840219 3.357947 0.000000
vt 6.448644 4.059482 0.000000
vt 5.985381 4.715889 0.000000
vt -2.540000 -17.858238 0.000000
vt -0.000000 -17.858238 0.000000
vt -0.000000 -17.054445 0.000000
vt -0.000000 -16.250654 0.000000
vt -0.000000 -15.446862 0.000000
vt -0.000000 -14.643070 0.000000
vt -0.000000 -13.839278 0.000000
vt -0.000000 -13.035487 0.000000
vt -0.000000 -12.231695 0.000000
vt -0.000000 -11.427903 0.000000
vt -0.000000 -10.624111 0.000000
vt -0.000000 -9.820320 0.000000
vt -0.000000 -9.016528 0.000000
vt -0.000000 -8.212736 0.000000
vt -0.000000 -7.408945 0.000000
vt -0.000000 -6.605153 0.000000
vt -0.000000 -5.801361 0.000000
vt -0.000000 -4.997569 0.000000
vt -0.000000 -4.193778 0.000000
vt -0.000000 -3.389985 0.000000
vt -0.000000 -2.586194 0.000000
vt -0.000000 -1.782402 0.000000
vt -0.000000 -0.978610 0.000000
vt -0.000000 -0.174818 0.000000
vt -0.000000 0.628974 0.000000
vt -0.000000 1.432765 0.000000
vt -0.000000 2.236557 0.000000
vt -0.000000 3.040349 0.000000
vt -0.000000 3.844141 0.000000
vt -0.000000 4.647933 0.000000
vt -0.000000 5.451725 0.000000
vt -0.000000 6.255516 0.000000
vt -0.000000 7.059308 0.000000
vt -0.000000 7.863100 0.000000
vt -0.000000 8.666892 0.000000
vt -0.000000 9.470684 0.000000
vt -0.000000 10.274475 0.000000
vt -0.000000 11.078267 0.000000
vt -0.000000 11.882059 0.000000
vt -0.000000 12.685851 0.000000
vt -0.000000 13.489642 0.000000
vt -0.000000 14.293434 0.000000
vt -0.000000 15.097226 0.000000
vt -0.000000 15.901017 0.000000
vt -0.000000 16.704809 0.000000
vt -0.000000 17.508602 0.000000
vt -0.000000 18.312393 0.000000
vt -0.000000 19.116186 0.000000
vt -0.000000 19.919977 0.000000
vt -0.000000 20.723770 0.000000
vt -0.000000 21.527561 0.000000
vt -0.000000 22.331352 0.000000
vt -0.000000 23.135145 0.000000
vt -0.000000 23.938936 0.000000
vt -2.540000 23.938936 0.000000
vt -2.540000 23.135145 0.000000
vt -2.540000 22.331352 0.000000
vt -2.540000 21.527561 0.000000
vt -2.540000 20.723770 0.000000
vt -2.540000 19.919977 0.000000
vt -2.540000 19.116186 0.000000
vt -2.540000 18.312393 0.000000
vt -2.540000 17.508602 0.000000
vt -2.540000 16.704809 0.000000
vt -2.540000 15.901017 0.000000
vt -2.540000 15.097226 0.000000
vt -2.540000 14.293434 0.000000
vt -2.540000 13.489642 0.000000
vt -2.540000 12.685851 0.000000
vt -2.540000 11.882059 0.000000
vt -2.540000 11.078267 0.000000
vt -2.540000 10.274475 0.000000
vt -2.540000 9.470684 0.000000
vt -2.540000 8.666892 0.000000
vt -2.540000 7.863100 0.000000
vt -2.540000 7.059308 0.000000
vt -2.540000 6.255516 0.000000
vt -2.540000 5.451725 0.000000
vt -2.540000 4.647933 0.000000
vt -2.540000 3.844141 0.000000
vt -2.540000 3.040349 0.000000
vt -2.540000 2.236557 0.000000
vt -2.540000 1.432765 0.000000
vt -2.540000 0.628974 0.000000
vt -2.540000 -0.174818 0.000000
vt -2.540000 -0.978610 0.000000
vt -2.540000 -1.782402 0.000000
vt -2.540000 -2.586194 0.000000
vt -2.540000 -3.389985 0.000000
vt -2.540000 -4.193778 0.000000
vt -2.540000 -4.997569 0.000000
vt -2.540000 -5.801361 0.000000
vt -2.540000 -6.605153 0.000000
vt -2.540000 -7.408945 0.000000
vt -2.540000 -8.212736 0.000000
vt -2.540000 -9.016528 0.000000
vt -2.540000 -9.820320 0.000000
vt -2.540000 -10.624111 0.000000
vt -2.540000 -11.427903 0.000000
vt -2.540000 -12.231695 0.000000
vt -2.540000 -13.035487 0.000000
vt -2.540000 -13.839278 0.000000
vt -2.540000 -14.643070 0.000000
vt -2.540000 -15.446862 0.000000
vt -2.540000 -16.250654 0.000000
vt -2.540000 -17.054445 0.000000
vt 0.000000 0.014302 0.000000
vt -5.455582 5.319871 0.000000
vt -5.985381 4.715889 0.000000
vt -6.448644 4.059482 0.000000
vt -6.840219 3.357947 0.000000
vt -7.155753 2.619083 0.000000
vt -7.391740 1.851103 0.000000
vt -7.545555 1.062545 0.000000
vt -7.615489 0.262176 0.000000
vt -7.600763 -0.541109 0.000000
vt -7.501543 -1.338378 0.000000
vt -7.318931 -2.120768 0.000000
vt -7.054956 -2.879583 0.000000
vt -6.712554 -3.606386 0.000000
vt -6.295530 -4.293099 0.000000
vt -5.808522 -4.932086 0.000000
vt -5.256942 -5.516245 0.000000
vt -4.646922 -6.039083 0.000000
vt -3.985244 -6.494785 0.000000
vt -3.279263 -6.878287 0.000000
vt -2.536829 -7.185326 0.000000
vt -1.766192 -7.412487 0.000000
vt -0.975922 -7.557247 0.000000
vt -0.174803 -7.617995 0.000000
vt 0.628260 -7.594056 0.000000
vt 1.424338 -7.485697 0.000000
vt 2.204582 -7.294122 0.000000
vt 2.960319 -7.021461 0.000000
vt 3.683147 -6.670744 0.000000
vt 4.365031 -6.245871 0.000000
vt 4.998390 -5.751565 0.000000
vt 5.576184 -5.193320 0.000000
vt 6.091989 -4.577343 0.000000
vt 6.540071 -3.910482 0.000000
vt 6.915450 -3.200149 0.000000
vt 7.213952 -2.454241 0.000000
vt 7.432259 -1.681049 0.000000
vt 7.567944 -0.889171 0.000000
vt 7.619499 -0.087407 0.000000
vt 7.586350 0.715328 0.000000
vt 7.468866 1.510111 0.000000
vt 7.268354 2.288106 0.000000
vt 6.987041 3.040666 0.000000
vt 6.628057 3.759423 0.000000
vt 6.195390 4.436388 0.000000
vt 5.693851 5.064036 0.000000
vt 5.129015 5.635388 0.000000
vt 4.507163 6.144094 0.000000
vt 3.835205 6.584497 0.000000
vt 3.120613 6.951703 0.000000
vt 2.371330 7.241630 0.000000
vt 1.595685 7.451053 0.000000
vt 0.802302 7.577645 0.000000
vt 0.000000 7.620000 0.000000
vn 1.820912 0.000000 1.770842
vn 1.820912 0.000000 1.770842
vn 1.820912 0.000000 1.770842
vn 1.820912 0.000000 1.770842
vn 0.000000 0.000000 -2.540000
vn 0.000000 0.000000 -2.540000
vn 0.000000 0.000000 -2.540000
vn 0.000000 0.000000 -2.540000
vn 0.000000 -2.540000 0.000000
vn 0.000000 -2.540000 0.000000
vn 0.000000 -2.540000 0.000000
vn 0.000000 -2.540000 0.000000
vn 0.000000 -2.540000 0.000000
vn 0.000000 -2.540000 0.000000
vn 0.000000 -2.540000 0.000000
vn 0.000000 -2.540000 0.000000
vn 0.000000 -2.540000 0.000000
vn 0.000000 -2.540000 0.000000
vn 0.000000 -2.540000 0.000000
vn 0.000000 -2.540000 0.000000
vn 0.000000 -2.540000 0.000000
vn 0.000000 -2.540000 0.000000
vn 0.000000 -2.540000 0.000000
vn 0.000000 -2.540000 0.000000
vn 0.000000 -2.540000 0.000000
vn 0.000000 -2.540000 0.000000
vn 0.000000 -2.540000 0.000000
vn 0.000000 -2.540000 0.000000
vn 0.000000 -2.540000 0.000000
vn 0.000000 -2.540000 0.000000
vn 0.000000 -2.540000 0.000000
vn 0.000000 -2.540000 0.000000
vn 0.000000 -2.540000 0.000000
vn 0.000000 -2.540000 0.000000
vn 0.000000 -2.540000 0.000000
vn 0.000000 -2.540000 0.000000
vn 0.000000 -2.540000 0.000000
vn 0.000000 -2.540000 0.000000
vn 0.000000 -2.540000 0.000000
vn 0.000000 -2.540000 0.000000
vn 0.000000 -2.540000 0.000000
vn 0.000000 -2.540000 0.000000
vn 0.000000 -2.540000 0.000000
vn 0.000000 -2.540000 0.000000
vn 0.000000 -2.540000 0.000000
vn 0.000000 -2.540000 0.000000
vn 0.000000 -2.540000 0.000000
vn 0.000000 -2.540000 0.000000
vn 0.000000 -2.540000 0.000000
vn 0.000000 -2.540000 0.000000
vn 0.000000 -2.540000 0.000000
vn 0.000000 -2.540000 0.000000
vn 0.000000 -2.540000 0.000000
vn 0.000000 -2.540000 0.000000
vn 0.000000 -2.540000 0.000000
vn 0.000000 -2.540000 0.000000
vn 0.000000 -2.540000 0.000000
vn 0.000000 -2.540000 0.000000
vn 0.000000 -2.540000 0.000000
vn 0.000000 -2.540000 0.000000
vn 0.000000 -2.540000 0.000000
vn 0.000000 -2.540000 0.000000
vn 1.773291 0.000000 -1.818527
vn 1.773291 0.000000 -1.818527
vn 1.571963 0.000000 -1.995127
vn 1.353161 0.000000 -2.149548
vn 1.119316 0.000000 -2.280073
vn 0.873028 0.000000 -2.385251
vn 0.617034 0.000000 -2.463913
vn 0.354182 0.000000 -2.515185
vn 0.087392 0.000000 -2.538496
vn -0.180370 0.000000 -2.533588
vn -0.446126 0.000000 -2.500514
vn -0.706923 0.000000 -2.439644
vn -0.959861 0.000000 -2.351652
vn -1.202129 0.000000 -2.237518
vn -1.431033 0.000000 -2.098510
vn -1.644029 0.000000 -1.936174
vn -1.838748 0.000000 -1.752314
vn -2.013027 0.000000 -1.548974
vn -2.164928 0.000000 -1.328415
vn -2.292762 0.000000 -1.093088
vn -2.395108 0.000000 -0.845609
vn -2.470829 0.000000 -0.588731
vn -2.519082 0.000000 -0.325307
vn -2.539332 0.000000 -0.058268
vn -2.531352 0.000000 0.209420
vn -2.495232 0.000000 0.474779
vn -2.431374 0.000000 0.734861
vn -2.340487 0.000000 0.986773
vn -2.223581 0.000000 1.227716
vn -2.081957 0.000000 1.455010
vn -1.917188 0.000000 1.666130
vn -1.731107 0.000000 1.858728
vn -1.525781 0.000000 2.030663
vn -1.303494 0.000000 2.180024
vn -1.066716 0.000000 2.305150
vn -0.818080 0.000000 2.404651
vn -0.560350 0.000000 2.477420
vn -0.296390 0.000000 2.522648
vn -0.029136 0.000000 2.539833
vn 0.238443 0.000000 2.528783
vn 0.503370 0.000000 2.489622
vn 0.762702 0.000000 2.422785
vn 1.013555 0.000000 2.329014
vn 1.253141 0.000000 2.209352
vn 1.478796 0.000000 2.065130
vn 1.688012 0.000000 1.897950
vn 1.878463 0.000000 1.709672
vn 2.048031 0.000000 1.502388
vn 2.194832 0.000000 1.278402
vn 2.317234 0.000000 1.040204
vn 2.413876 0.000000 0.790443
vn 2.483684 0.000000 0.531895
vn 2.525882 0.000000 0.267434
vn 2.540000 0.000000 0.000000
vn 2.540000 0.000000 0.000000
vn 2.525882 0.000000 0.267434
vn 2.483684 0.000000 0.531895
vn 2.413876 0.000000 0.790443
vn 2.317234 0.000000 1.040204
vn 2.194832 0.000000 1.278402
vn 2.048031 0.000000 1.502388
vn 1.878463 0.000000 1.709672
vn 1.688012 0.000000 1.897950
vn 1.478796 0.000000 2.065130
vn 1.253141 0.000000 2.209352
vn 1.013555 0.000000 2.329014
vn 0.762702 0.000000 2.422785
vn 0.503370 0.000000 2.489622
vn 0.238443 0.000000 2.528783
vn -0.029136 0.000000 2.539833
vn -0.296390 0.000000 2.522648
vn -0.560350 0.000000 2.477420
vn -0.818080 0.000000 2.404651
vn -1.066716 0.000000 2.305150
vn -1.303494 0.000000 2.180024
vn -1.525781 0.000000 2.030663
vn -1.731107 0.000000 1.858728
vn -1.917188 0.000000 1.666130
vn -2.081957 0.000000 1.455010
vn -2.223581 0.000000 1.227716
vn -2.340487 0.000000 0.986773
vn -2.431374 0.000000 0.734861
vn -2.495232 0.000000 0.474779
vn -2.531352 0.000000 0.209420
vn -2.539332 0.000000 -0.058268
vn -2.519082 0.000000 -0.325307
vn -2.470829 0.000000 -0.588731
vn -2.395108 0.000000 -0.845609
vn -2.292762 0.000000 -1.093088
vn -2.164928 0.000000 -1.328415
vn -2.013027 0.000000 -1.548974
vn -1.838748 0.000000 -1.752314
vn -1.644029 0.000000 -1.936174
vn -1.431033 0.000000 -2.098510
vn -1.202129 0.000000 -2.237518
vn -0.959861 0.000000 -2.351652
vn -0.706923 0.000000 -2.439644
vn -0.446126 0.000000 -2.500514
vn -0.180370 0.000000 -2.533588
vn 0.087392 0.000000 -2.538496
vn 0.354182 0.000000 -2.515185
vn 0.617034 0.000000 -2.463913
vn 0.873028 0.000000 -2.385251
vn 1.119316 0.000000 -2.280073
vn 1.353161 0.000000 -2.149548
vn 1.571963 0.000000 -1.995127
vn 0.000000 2.540000 0.000000
vn 0.000000 2.540000 0.000000
vn 0.000000 2.540000 0.000000
vn 0.000000 2.540000 0.000000
vn 0.000000 2.540000 0.000000
vn 0.000000 2.540000 0.000000
vn 0.000000 2.540000 0.000000
vn 0.000000 2.540000 0.000000
vn 0.000000 2.540000 0.000000
vn 0.000000 2.540000 0.000000
vn 0.000000 2.540000 0.000000
vn 0.000000 2.540000 0.000000
vn 0.000000 2.540000 0.000000
vn 0.000000 2.540000 0.000000
vn 0.000000 2.540000 0.000000
vn 0.000000 2.540000 0.000000
vn 0.000000 2.540000 0.000000
vn 0.000000 2.540000 0.000000
vn 0.000000 2.540000 0.000000
vn 0.000000 2.540000 0.000000
vn 0.000000 2.540000 0.000000
vn 0.000000 2.540000 0.000000
vn 0.000000 2.540000 0.000000
vn 0.000000 2.540000 0.000000
vn 0.000000 2.540000 0.000000
vn 0.000000 2.540000 0.000000
vn 0.000000 2.540000 0.000000
vn 0.000000 2.540000 0.000000
vn 0.000000 2.540000 0.000000
vn 0.000000 2.540000 0.000000
vn 0.000000 2.540000 0.000000
vn 0.000000 2.540000 0.000000
vn 0.000000 2.540000 0.000000
vn 0.000000 2.540000 0.000000
vn 0.000000 2.540000 0.000000
vn 0.000000 2.540000 0.000000
vn 0.000000 2.540000 0.000000
vn 0.000000 2.540000 0.000000
vn 0.000000 2.540000 0.000000
vn 0.000000 2.540000 0.000000
vn 0.000000 2.540000 0.000000
vn 0.000000 2.540000 0.000000
vn 0.000000 2.540000 0.000000
vn 0.000000 2.540000 0.000000
vn 0.000000 2.540000 0.000000
vn 0.000000 2.540000 0.000000
vn 0.000000 2.540000 0.000000
vn 0.000000 2.540000 0.000000
vn 0.000000 2.540000 0.000000
vn 0.000000 2.540000 0.000000
vn 0.000000 2.540000 0.000000
vn 0.000000 2.540000 0.000000
vn 0.000000 2.540000 0.000000
vn 0.000000 2.540000 0.000000
usemtl 191,191,191
f 92/1/1 62/2/2 91/4/4
f 91/4/4 62/2/2 61/3/3
f 62/5/5 108/6/6 61/8/8
f 61/8/8 108/6/6 107/7/7
f 91/9/9 61/10/10 87/62/62
f 87/62/62 61/10/10 83/61/61
f 83/61/61 61/10/10 79/60/60
f 79/60/60 61/10/10 75/59/59
f 75/59/59 61/10/10 71/58/58
f 71/58/58 61/10/10 67/57/57
f 67/57/57 61/10/10 63/56/56
f 63/56/56 61/10/10 57/55/55
f 57/55/55 61/10/10 53/54/54
f 53/54/54 61/10/10 49/53/53
f 49/53/53 61/10/10 45/52/52
f 45/52/52 61/10/10 41/51/51
f 41/51/51 61/10/10 37/50/50
f 37/50/50 61/10/10 33/49/49
f 33/49/49 61/10/10 29/48/48
f 29/48/48 61/10/10 25/47/47
f 25/47/47 61/10/10 21/46/46
f 21/46/46 61/10/10 17/45/45
f 17/45/45 61/10/10 13/44/44
f 13/44/44 61/10/10 9/43/43
f 9/43/43 61/10/10 5/42/42
f 5/42/42 61/10/10 1/41/41
f 1/41/41 61/10/10 3/40/40
f 3/40/40 61/10/10 7/39/39
f 7/39/39 61/10/10 11/38/38
f 11/38/38 61/10/10 15/37/37
f 15/37/37 61/10/10 19/36/36
f 19/36/36 61/10/10 23/35/35
f 23/35/35 61/10/10 27/34/34
f 27/34/34 61/10/10 31/33/33
f 31/33/33 61/10/10 35/32/32
f 35/32/32 61/10/10 39/31/31
f 39/31/31 61/10/10 43/30/30
f 43/30/30 61/10/10 47/29/29
f 47/29/29 61/10/10 51/28/28
f 51/28/28 61/10/10 55/27/27
f 55/27/27 61/10/10 59/26/26
f 59/26/26 61/10/10 65/25/25
f 65/25/25 61/10/10 69/24/24
f 69/24/24 61/10/10 73/23/23
f 73/23/23 61/10/10 77/22/22
f 77/22/22 61/10/10 81/21/21
f 81/21/21 61/10/10 85/20/20
f 85/20/20 61/10/10 89/19/19
f 89/19/19 61/10/10 93/18/18
f 93/18/18 61/10/10 95/17/17
f 95/17/17 61/10/10 97/16/16
f 97/16/16 61/10/10 99/15/15
f 99/15/15 61/10/10 101/14/14
f 101/14/14 61/10/10 103/13/13
f 103/13/13 61/10/10 105/12/12
f 105/12/12 61/10/10 107/11/11
f 91/64/64 87/65/65 92/63/63
f 92/63/63 87/65/65 88/168/168
f 88/168/168 87/65/65 83/66/66
f 88/168/168 83/66/66 84/167/167
f 84/167/167 83/66/66 79/67/67
f 84/167/167 79/67/67 80/166/166
f 80/166/166 79/67/67 75/68/68
f 80/166/166 75/68/68 76/165/165
f 76/165/165 75/68/68 71/69/69
f 76/165/165 71/69/69 72/164/164
f 72/164/164 71/69/69 67/70/70
f 72/164/164 67/70/70 68/163/163
f 68/163/163 67/70/70 63/71/71
f 68/163/163 63/71/71 64/162/162
f 64/162/162 63/71/71 57/72/72
f 64/162/162 57/72/72 58/161/161
f 58/161/161 57/72/72 53/73/73
f 58/161/161 53/73/73 54/160/160
f 54/160/160 53/73/73 49/74/74
f 54/160/160 49/74/74 50/159/159
f 50/159/159 49/74/74 45/75/75
f 50/159/159 45/75/75 46/158/158
f 46/158/158 45/75/75 41/76/76
f 46/158/158 41/76/76 42/157/157
f 42/157/157 41/76/76 37/77/77
f 42/157/157 37/77/77 38/156/156
f 38/156/156 37/77/77 33/78/78
f 38/156/156 33/78/78 34/155/155
f 34/155/155 33/78/78 29/79/79
f 34/155/155 29/79/79 30/154/154
f 30/154/154 29/79/79 25/80/80
f 30/154/154 25/80/80 26/153/153
f 26/153/153 25/80/80 21/81/81
f 26/153/153 21/81/81 22/152/152
f 22/152/152 21/81/81 17/82/82
f 22/152/152 17/82/82 18/151/151
f 18/151/151 17/82/82 13/83/83
f 18/151/151 13/83/83 14/150/150
f 14/150/150 13/83/83 9/84/84
f 14/150/150 9/84/84 10/149/149
f 10/149/149 9/84/84 5/85/85
f 10/149/149 5/85/85 6/148/148
f 6/148/148 5/85/85 1/86/86
f 6/148/148 1/86/86 2/147/147
f 2/147/147 1/86/86 3/87/87
f 2/147/147 3/87/87 4/146/146
f 4/146/146 3/87/87 7/88/88
f 4/146/146 7/88/88 8/145/145
f 8/145/145 7/88/88 11/89/89
f 8/145/145 11/89/89 12/144/144
f 12/144/144 11/89/89 15/90/90
f 12/144/144 15/90/90 16/143/143
f 16/143/143 15/90/90 19/91/91
f 16/143/143 19/91/91 20/142/142
f 20/142/142 19/91/91 23/92/92
f 20/142/142 23/92/92 24/141/141
f 24/141/141 23/92/92 27/93/93
f 24/141/141 27/93/93 28/140/140
f 28/140/140 27/93/93 31/94/94
f 28/140/140 31/94/94 32/139/139
f 32/139/139 31/94/94 35/95/95
f 32/139/139 35/95/95 36/138/138
f 36/138/138 35/95/95 39/96/96
f 36/138/138 39/96/96 40/137/137
f 40/137/137 39/96/96 43/97/97
f 40/137/137 43/97/97 44/136/136
f 44/136/136 43/97/97 47/98/98
f 44/136/136 47/98/98 48/135/135
f 48/135/135 47/98/98 51/99/99
f 48/135/135 51/99/99 52/134/134
f 52/134/134 51/99/99 55/100/100
f 52/134/134 55/100/100 56/133/133
f 56/133/133 55/100/100 59/101/101
f 56/133/133 59/101/101 60/132/132
f 60/132/132 59/101/101 65/102/102
f 60/132/132 65/102/102 66/131/131
f 66/131/131 65/102/102 69/103/103
f 66/131/131 69/103/103 70/130/130
f 70/130/130 69/103/103 73/104/104
f 70/130/130 73/104/104 74/129/129
f 74/129/129 73/104/104 77/105/105
f 74/129/129 77/105/105 78/128/128
f 78/128/128 77/105/105 81/106/106
f 78/128/128 81/106/106 82/127/127
f 82/127/127 81/106/106 85/107/107
f 82/127/127 85/107/107 86/126/126
f 86/126/126 85/107/107 89/108/108
f 86/126/126 89/108/108 90/125/125
f 90/125/125 89/108/108 93/109/109
f 90/125/125 93/109/109 94/124/124
f 94/124/124 93/109/109 95/110/110
f 94/124/124 95/110/110 96/123/123
f 96/123/123 95/110/110 97/111/111
f 96/123/123 97/111/111 98/122/122
f 98/122/122 97/111/111 99/112/112
f 98/122/122 99/112/112 100/121/121
f 100/121/121 99/112/112 101/113/113
f 100/121/121 101/113/113 102/120/120
f 102/120/120 101/113/113 103/114/114
f 102/120/120 103/114/114 104/119/119
f 104/119/119 103/114/114 106/118/118
f 106/118/118 103/114/114 105/115/115
f 106/118/118 105/115/115 108/117/117
f 108/117/117 105/115/115 107/116/116
f 92/170/170 88/171/171 62/169/169
f 62/169/169 88/171/171 84/172/172
f 62/169/169 84/172/172 80/173/173
f 80/173/173 76/174/174 62/169/169
f 62/169/169 76/174/174 72/175/175
f 62/169/169 72/175/175 68/176/176
f 68/176/176 64/177/177 62/169/169
f 62/169/169 64/177/177 58/178/178
f 62/169/169 58/178/178 54/179/179
f 54/179/179 50/180/180 62/169/169
f 62/169/169 50/180/180 46/181/181
f 62/169/169 46/181/181 42/182/182
f 42/182/182 38/183/183 62/169/169
f 62/169/169 38/183/183 34/184/184
f 62/169/169 34/184/184 30/185/185
f 30/185/185 26/186/186 62/169/169
f 62/169/169 26/186/186 22/187/187
f 62/169/169 22/187/187 18/188/188
f 18/188/188 14/189/189 62/169/169
f 62/169/169 14/189/189 10/190/190
f 62/169/169 10/190/190 6/191/191
f 6/191/191 2/192/192 62/169/169
f 62/169/169 2/192/192 4/193/193
f 62/169/169 4/193/193 8/194/194
f 8/194/194 12/195/195 62/169/169
f 62/169/169 12/195/195 16/196/196
f 62/169/169 16/196/196 20/197/197
f 20/197/197 24/198/198 62/169/169
f 62/169/169 24/198/198 28/199/199
f 62/169/169 28/199/199 32/200/200
f 32/200/200 36/201/201 62/169/169
f 62/169/169 36/201/201 40/202/202
f 62/169/169 40/202/202 44/203/203
f 44/203/203 48/204/204 62/169/169
f 62/169/169 48/204/204 52/205/205
f 62/169/169 52/205/205 56/206/206
f 56/206/206 60/207/207 62/169/169
f 62/169/169 60/207/207 66/208/208
f 62/169/169 66/208/208 70/209/209
f 70/209/209 74/210/210 62/169/169
f 62/169/169 74/210/210 78/211/211
f 62/169/169 78/211/211 82/212/212
f 82/212/212 86/213/213 62/169/169
f 62/169/169 86/213/213 90/214/214
f 62/169/169 90/214/214 94/215/215
f 94/215/215 96/216/216 62/169/169
f 62/169/169 96/216/216 98/217/217
f 62/169/169 98/217/217 100/218/218
f 100/218/218 102/219/219 62/169/169
f 62/169/169 102/219/219 104/220/220
f 62/169/169 104/220/220 106/221/221
f 106/221/221 108/222/222 62/169/169

# 108 vertices
# 222 texture params
# 222 normals
# 212 facets

# 1 groups
