# WaveFront *.obj file (generated by Autodesk ATF)

mtllib tree.mtl

g Solid1

v 0.000000 0.000000 0.000000
v 0.000000 0.000000 10.000000
v 1.000000 2.000000 1.000000
v 1.000000 2.000000 9.000000
v 2.000000 2.000000 2.000000
v 2.000000 2.000000 8.000000
v 2.250000 4.500000 2.250000
v 2.250000 4.500000 7.750000
v 3.500000 4.500000 3.500000
v 3.500000 4.500000 6.500000
v 3.562254 6.000000 5.062344
v 4.218381 6.750000 5.093672
v 4.874517 7.500000 5.124870
v 4.874517 7.500000 5.125130
v 4.874647 7.500000 5.124646
v 4.874647 7.500000 5.125354
v 4.874871 7.500000 5.124517
v 4.874871 7.500000 5.125483
v 4.875129 7.500000 5.124517
v 4.875129 7.500000 5.125483
v 4.875354 7.500000 5.124646
v 4.875354 7.500000 5.125354
v 4.875483 7.500000 5.124870
v 4.875483 7.500000 5.125130
v 4.906172 6.750000 5.781619
v 4.906328 6.750000 4.405881
v 4.937344 6.000000 6.437746
v 4.937656 6.000000 3.687254
v 5.594119 6.750000 5.093828
v 6.312747 6.000000 5.062656
v 6.500000 4.500000 3.500000
v 6.500000 4.500000 6.500000
v 7.750000 4.500000 2.250000
v 7.750000 4.500000 7.750000
v 8.000000 2.000000 2.000000
v 8.000000 2.000000 8.000000
v 9.000000 2.000000 1.000000
v 9.000000 2.000000 9.000000
v 10.000000 0.000000 0.000000
v 10.000000 0.000000 10.000000
vt 7.620000 7.620000 0.000000
vt 7.620000 -7.620000 0.000000
vt -7.620000 -7.620000 0.000000
vt -7.620000 7.620000 0.000000
vt -10.160000 10.160000 0.000000
vt -10.160000 -10.160000 0.000000
vt 10.160000 -10.160000 0.000000
vt 10.160000 10.160000 0.000000
vt 0.000000 0.000000 0.000000
vt 20.320000 0.000000 0.000000
vt 13.970000 8.980256 0.000000
vt 6.350000 8.980256 0.000000
vt 0.000000 0.000000 0.000000
vt 20.320000 0.000000 0.000000
vt 13.970000 8.980256 0.000000
vt 6.350000 8.980256 0.000000
vt 0.000000 0.000000 0.000000
vt 20.320000 0.000000 0.000000
vt 13.970000 8.980256 0.000000
vt 6.350000 8.980256 0.000000
vt 0.000000 0.000000 0.000000
vt 20.320000 0.000000 0.000000
vt 13.970000 8.980256 0.000000
vt 6.350000 8.980256 0.000000
vt 0.000898 0.000898 0.000000
vt 0.000329 0.001227 0.000000
vt -0.000329 0.001227 0.000000
vt -0.000898 0.000898 0.000000
vt -0.001227 0.000329 0.000000
vt -0.001227 -0.000329 0.000000
vt -0.000898 -0.000898 0.000000
vt -0.000329 -0.001227 0.000000
vt 0.000329 -0.001227 0.000000
vt 0.000898 -0.000898 0.000000
vt 0.001227 -0.000329 0.000000
vt 0.001227 0.000329 0.000000
vt -25.400000 0.000000 0.000000
vt -0.000000 0.000000 0.000000
vt -5.080000 7.184205 0.000000
vt -20.320000 7.184205 0.000000
vt -25.400000 0.000000 0.000000
vt -0.000000 0.000000 0.000000
vt -5.080000 7.184205 0.000000
vt -20.320000 7.184205 0.000000
vt -25.400000 0.000000 0.000000
vt -0.000000 0.000000 0.000000
vt -5.080000 7.184205 0.000000
vt -20.320000 7.184205 0.000000
vt -25.400000 0.000000 0.000000
vt -0.000000 0.000000 0.000000
vt -5.080000 7.184205 0.000000
vt -20.320000 7.184205 0.000000
vt 12.700000 -12.700000 0.000000
vt 12.700000 12.700000 0.000000
vt -12.700000 12.700000 0.000000
vt -12.700000 -12.700000 0.000000
vt -3.810000 -3.810000 0.000000
vt -3.810000 3.810000 0.000000
vt 3.810000 3.810000 0.000000
vt 3.810000 -3.810000 0.000000
vt -6.985000 6.985000 0.000000
vt -6.985000 -6.985000 0.000000
vt 6.985000 -6.985000 0.000000
vt 6.985000 6.985000 0.000000
vt 0.000000 0.000000 0.000000
vt 6.985998 0.000000 0.000000
vt 6.985998 10.129354 0.000000
vt 4.646259 10.129345 0.000000
vt 2.341849 10.129345 0.000000
vt 0.000000 10.129354 0.000000
vt 3.492602 7.597016 0.000000
vt 3.492602 5.064677 0.000000
vt 0.000000 0.000000 0.000000
vt 6.985998 0.000000 0.000000
vt 6.985998 10.129354 0.000000
vt 4.644148 10.129345 0.000000
vt 2.339738 10.129345 0.000000
vt 0.000000 10.129354 0.000000
vt 3.492602 7.597016 0.000000
vt 3.492602 5.064677 0.000000
vt 0.000000 0.000000 0.000000
vt 6.985998 0.000000 0.000000
vt 6.985998 10.558085 0.000000
vt 4.644647 10.558075 0.000000
vt 2.339236 10.558075 0.000000
vt 0.000000 10.558085 0.000000
vt 3.492602 7.918564 0.000000
vt 3.492602 5.279043 0.000000
vt 0.000000 0.000000 0.000000
vt 6.985998 0.000000 0.000000
vt 6.985998 10.558085 0.000000
vt 4.646762 10.558075 0.000000
vt 2.341351 10.558075 0.000000
vt 0.000000 10.558085 0.000000
vt 3.492602 7.918564 0.000000
vt 3.492602 5.279043 0.000000
vn 0.000000 -2.540000 0.000000
vn 0.000000 -2.540000 0.000000
vn 0.000000 -2.540000 0.000000
vn 0.000000 -2.540000 0.000000
vn 0.000000 -2.540000 0.000000
vn 0.000000 -2.540000 0.000000
vn 0.000000 -2.540000 0.000000
vn 0.000000 -2.540000 0.000000
vn 0.000000 1.796051 -1.796051
vn 0.000000 1.796051 -1.796051
vn 0.000000 1.796051 -1.796051
vn 0.000000 1.796051 -1.796051
vn -1.796051 1.796051 0.000000
vn -1.796051 1.796051 0.000000
vn -1.796051 1.796051 0.000000
vn -1.796051 1.796051 0.000000
vn 1.796051 1.796051 0.000000
vn 1.796051 1.796051 0.000000
vn 1.796051 1.796051 0.000000
vn 1.796051 1.796051 0.000000
vn 0.000000 1.796051 1.796051
vn 0.000000 1.796051 1.796051
vn 0.000000 1.796051 1.796051
vn 0.000000 1.796051 1.796051
vn 0.000000 2.540000 0.000000
vn 0.000000 2.540000 0.000000
vn 0.000000 2.540000 0.000000
vn 0.000000 2.540000 0.000000
vn 0.000000 2.540000 0.000000
vn 0.000000 2.540000 0.000000
vn 0.000000 2.540000 0.000000
vn 0.000000 2.540000 0.000000
vn 0.000000 2.540000 0.000000
vn 0.000000 2.540000 0.000000
vn 0.000000 2.540000 0.000000
vn 0.000000 2.540000 0.000000
vn 0.000000 1.796051 -1.796051
vn 0.000000 1.796051 -1.796051
vn 0.000000 1.796051 -1.796051
vn 0.000000 1.796051 -1.796051
vn 1.796051 1.796051 0.000000
vn 1.796051 1.796051 0.000000
vn 1.796051 1.796051 0.000000
vn 1.796051 1.796051 0.000000
vn 0.000000 1.796051 1.796051
vn 0.000000 1.796051 1.796051
vn 0.000000 1.796051 1.796051
vn 0.000000 1.796051 1.796051
vn -1.796051 1.796051 0.000000
vn -1.796051 1.796051 0.000000
vn -1.796051 1.796051 0.000000
vn -1.796051 1.796051 0.000000
vn 0.000000 -2.540000 0.000000
vn 0.000000 -2.540000 0.000000
vn 0.000000 -2.540000 0.000000
vn 0.000000 -2.540000 0.000000
vn 0.000000 -2.540000 0.000000
vn 0.000000 -2.540000 0.000000
vn 0.000000 -2.540000 0.000000
vn 0.000000 -2.540000 0.000000
vn 0.000000 -2.540000 0.000000
vn 0.000000 -2.540000 0.000000
vn 0.000000 -2.540000 0.000000
vn 0.000000 -2.540000 0.000000
vn -1.911656 1.672474 0.000000
vn -1.911656 1.672474 0.000000
vn -1.128981 1.975450 1.128981
vn -1.825224 1.711153 0.438309
vn -1.807973 1.730628 -0.433315
vn -1.097088 2.011069 -1.097088
vn -1.911700 1.672424 0.000000
vn -1.911700 1.672424 0.000000
vn 0.000000 1.672474 1.911656
vn 0.000000 1.672474 1.911656
vn 1.097088 2.011069 1.097088
vn 0.433315 1.730628 1.807973
vn -0.438309 1.711153 1.825224
vn -1.128981 1.975450 1.128981
vn 0.000000 1.672424 1.911700
vn 0.000000 1.672424 1.911700
vn 1.833958 1.757327 0.000000
vn 1.833958 1.757327 0.000000
vn 1.066445 2.043768 -1.066445
vn 1.736152 1.806677 -0.416286
vn 1.752790 1.789415 0.421097
vn 1.097088 2.011069 1.097088
vn 1.834000 1.757283 0.000000
vn 1.834000 1.757283 0.000000
vn 0.000000 1.757327 -1.833958
vn 0.000000 1.757327 -1.833958
vn -1.097088 2.011069 -1.097088
vn -0.421097 1.789415 -1.752790
vn 0.416286 1.806677 -1.736152
vn 1.066445 2.043768 -1.066445
vn 0.000000 1.757283 -1.834000
vn 0.000000 1.757283 -1.834000
usemtl 191,191,191
f 5/2/2 3/7/7 35/1/1
f 35/1/1 3/7/7 37/8/8
f 35/1/1 37/8/8 38/5/5
f 5/2/2 6/3/3 3/7/7
f 3/7/7 6/3/3 4/6/6
f 4/6/6 6/3/3 36/4/4
f 4/6/6 36/4/4 38/5/5
f 38/5/5 36/4/4 35/1/1
f 37/9/9 3/10/10 31/12/12
f 31/12/12 3/10/10 9/11/11
f 3/13/13 4/14/14 9/16/16
f 9/16/16 4/14/14 10/15/15
f 38/17/17 37/18/18 32/20/20
f 32/20/20 37/18/18 31/19/19
f 4/21/21 38/22/22 10/24/24
f 10/24/24 38/22/22 32/23/23
f 24/26/26 23/27/27 22/25/25
f 22/25/25 23/27/27 21/28/28
f 22/25/25 21/28/28 20/36/36
f 20/36/36 21/28/28 19/29/29
f 20/36/36 19/29/29 18/35/35
f 18/35/35 19/29/29 17/30/30
f 18/35/35 17/30/30 16/34/34
f 16/34/34 17/30/30 15/31/31
f 16/34/34 15/31/31 14/33/33
f 14/33/33 15/31/31 13/32/32
f 39/37/37 1/38/38 35/40/40
f 35/40/40 1/38/38 5/39/39
f 40/41/41 39/42/42 36/44/44
f 36/44/44 39/42/42 35/43/43
f 2/45/45 40/46/46 6/48/48
f 6/48/48 40/46/46 36/47/47
f 1/49/49 2/50/50 5/52/52
f 5/52/52 2/50/50 6/51/51
f 39/54/54 40/55/55 1/53/53
f 1/53/53 40/55/55 2/56/56
f 32/58/58 8/62/62 10/57/57
f 10/57/57 8/62/62 7/63/63
f 10/57/57 7/63/63 9/60/60
f 9/60/60 7/63/63 31/59/59
f 31/59/59 7/63/63 33/64/64
f 31/59/59 33/64/64 34/61/61
f 8/62/62 32/58/58 34/61/61
f 34/61/61 32/58/58 31/59/59
f 8/66/66 11/72/72 7/65/65
f 7/65/65 11/72/72 12/71/71
f 7/65/65 12/71/71 15/70/70
f 15/70/70 12/71/71 13/69/69
f 13/69/69 12/71/71 14/68/68
f 14/68/68 12/71/71 16/67/67
f 16/67/67 12/71/71 8/66/66
f 8/66/66 12/71/71 11/72/72
f 34/74/74 27/80/80 8/73/73
f 8/73/73 27/80/80 25/79/79
f 8/73/73 25/79/79 16/78/78
f 16/78/78 25/79/79 18/77/77
f 18/77/77 25/79/79 20/76/76
f 20/76/76 25/79/79 22/75/75
f 22/75/75 25/79/79 27/80/80
f 22/75/75 27/80/80 34/74/74
f 33/82/82 30/88/88 34/81/81
f 34/81/81 30/88/88 29/87/87
f 34/81/81 29/87/87 22/86/86
f 22/86/86 29/87/87 24/85/85
f 24/85/85 29/87/87 23/84/84
f 23/84/84 29/87/87 21/83/83
f 21/83/83 29/87/87 33/82/82
f 33/82/82 29/87/87 30/88/88
f 7/90/90 28/96/96 33/89/89
f 33/89/89 28/96/96 26/95/95
f 33/89/89 26/95/95 21/94/94
f 21/94/94 26/95/95 19/93/93
f 19/93/93 26/95/95 17/92/92
f 17/92/92 26/95/95 15/91/91
f 15/91/91 26/95/95 28/96/96
f 15/91/91 28/96/96 7/90/90

# 40 vertices
# 96 texture params
# 96 normals
# 76 facets

# 1 groups
