# WaveFront *.obj file (generated by Autodesk ATF)

mtllib treestump.mtl

g Solid1

v -3.500000 0.000000 0.000000
v -3.500000 10.000000 0.000000
v -3.412248 0.000000 -0.778823
v -3.412248 0.000000 0.778823
v -3.412248 10.000000 -0.778823
v -3.412248 10.000000 0.778823
v -3.153391 0.000000 -1.518593
v -3.153391 0.000000 1.518593
v -3.153391 10.000000 -1.518593
v -3.153391 10.000000 1.518593
v -2.736410 0.000000 -2.182214
v -2.736410 0.000000 2.182214
v -2.736410 10.000000 -2.182214
v -2.736410 10.000000 2.182214
v -2.182214 0.000000 -2.736410
v -2.182214 0.000000 2.736410
v -2.182214 10.000000 -2.736410
v -2.182214 10.000000 2.736410
v -1.518593 0.000000 -3.153391
v -1.518593 0.000000 3.153391
v -1.518593 10.000000 -3.153391
v -1.518593 10.000000 3.153391
v -0.778823 0.000000 -3.412248
v -0.778823 0.000000 3.412248
v -0.778823 10.000000 -3.412248
v -0.778823 10.000000 3.412248
v 0.000000 0.000000 -3.500000
v 0.000000 0.000000 3.500000
v 0.000000 10.000000 -3.500000
v 0.000000 10.000000 3.500000
v 0.778823 0.000000 -3.412248
v 0.778823 0.000000 3.412248
v 0.778823 10.000000 -3.412248
v 0.778823 10.000000 3.412248
v 1.518593 0.000000 -3.153391
v 1.518593 0.000000 3.153391
v 1.518593 10.000000 -3.153391
v 1.518593 10.000000 3.153391
v 2.182214 0.000000 -2.736410
v 2.182214 0.000000 2.736410
v 2.182214 10.000000 -2.736410
v 2.182214 10.000000 2.736410
v 2.736410 0.000000 -2.182214
v 2.736410 0.000000 2.182214
v 2.736410 10.000000 -2.182214
v 2.736410 10.000000 2.182214
v 3.153391 0.000000 -1.518593
v 3.153391 0.000000 1.518593
v 3.153391 10.000000 -1.518593
v 3.153391 10.000000 1.518593
v 3.412248 0.000000 -0.778823
v 3.412248 0.000000 0.778823
v 3.412248 10.000000 -0.778823
v 3.412248 10.000000 0.778823
v 3.500000 0.000000 0.000000
v 3.500000 10.000000 0.000000
vt -25.400002 0.000000 0.000000
vt -25.400002 -1.994911 0.000000
vt -25.400002 -3.989823 0.000000
vt -25.400002 -5.984734 0.000000
vt -25.400002 -7.979646 0.000000
vt -25.400002 -9.974557 0.000000
vt -25.400002 -11.969468 0.000000
vt -25.400002 -13.964380 0.000000
vt -25.400002 -15.959291 0.000000
vt -25.400002 -17.954205 0.000000
vt -25.400002 -19.949114 0.000000
vt -25.400002 -21.944025 0.000000
vt -25.400002 -23.938936 0.000000
vt -25.400002 -25.933847 0.000000
vt -25.400002 27.928761 0.000000
vt -25.400002 25.933847 0.000000
vt -25.400002 23.938936 0.000000
vt -25.400002 21.944025 0.000000
vt -25.400002 19.949114 0.000000
vt -25.400002 17.954205 0.000000
vt -25.400002 15.959291 0.000000
vt -25.400002 13.964380 0.000000
vt -25.400002 11.969468 0.000000
vt -25.400002 9.974557 0.000000
vt -25.400002 7.979646 0.000000
vt -25.400002 5.984734 0.000000
vt -25.400002 3.989823 0.000000
vt -25.400002 1.994911 0.000000
vt -0.000000 0.000000 0.000000
vt -0.000000 1.994911 0.000000
vt -0.000000 3.989823 0.000000
vt -0.000000 5.984734 0.000000
vt -0.000000 7.979646 0.000000
vt -0.000000 9.974557 0.000000
vt -0.000000 11.969468 0.000000
vt -0.000000 13.964380 0.000000
vt -0.000000 15.959291 0.000000
vt -0.000000 17.954205 0.000000
vt -0.000000 19.949114 0.000000
vt -0.000000 21.944025 0.000000
vt -0.000000 23.938936 0.000000
vt -0.000000 25.933847 0.000000
vt -0.000000 -27.928761 0.000000
vt -0.000000 -25.933847 0.000000
vt -0.000000 -23.938936 0.000000
vt -0.000000 -21.944025 0.000000
vt -0.000000 -19.949114 0.000000
vt -0.000000 -17.954205 0.000000
vt -0.000000 -15.959291 0.000000
vt -0.000000 -13.964380 0.000000
vt -0.000000 -11.969468 0.000000
vt -0.000000 -9.974557 0.000000
vt -0.000000 -7.979646 0.000000
vt -0.000000 -5.984734 0.000000
vt -0.000000 -3.989823 0.000000
vt -0.000000 -1.994911 0.000000
vt -0.000000 27.928761 0.000000
vt -25.400002 -27.928761 0.000000
vt 0.000000 -8.890000 0.000000
vt 1.978211 -8.667109 0.000000
vt 3.857226 -8.009613 0.000000
vt 5.542824 -6.950482 0.000000
vt 6.950482 -5.542824 0.000000
vt 8.009613 -3.857226 0.000000
vt 8.667109 -1.978211 0.000000
vt 8.890000 0.000000 0.000000
vt 8.667109 1.978211 0.000000
vt 8.009613 3.857226 0.000000
vt 6.950482 5.542824 0.000000
vt 5.542824 6.950482 0.000000
vt 3.857226 8.009613 0.000000
vt 1.978211 8.667109 0.000000
vt 0.000000 8.890000 0.000000
vt -1.978211 8.667109 0.000000
vt -3.857226 8.009613 0.000000
vt -5.542824 6.950482 0.000000
vt -6.950482 5.542824 0.000000
vt -8.009613 3.857226 0.000000
vt -8.667109 1.978211 0.000000
vt -8.890000 0.000000 0.000000
vt -8.667109 -1.978211 0.000000
vt -8.009613 -3.857226 0.000000
vt -6.950482 -5.542824 0.000000
vt -5.542824 -6.950482 0.000000
vt -3.857226 -8.009613 0.000000
vt -1.978211 -8.667109 0.000000
vt -0.000000 -8.890000 0.000000
vt 1.978211 -8.667109 0.000000
vt 3.857226 -8.009613 0.000000
vt 5.542824 -6.950482 0.000000
vt 6.950482 -5.542824 0.000000
vt 8.009613 -3.857226 0.000000
vt 8.667109 -1.978211 0.000000
vt 8.890000 0.000000 0.000000
vt 8.667109 1.978211 0.000000
vt 8.009613 3.857226 0.000000
vt 6.950482 5.542824 0.000000
vt 5.542824 6.950482 0.000000
vt 3.857226 8.009613 0.000000
vt 1.978211 8.667109 0.000000
vt -0.000000 8.890000 0.000000
vt -1.978211 8.667109 0.000000
vt -3.857226 8.009613 0.000000
vt -5.542824 6.950482 0.000000
vt -6.950482 5.542824 0.000000
vt -8.009613 3.857226 0.000000
vt -8.667109 1.978211 0.000000
vt -8.890000 0.000000 0.000000
vt -8.667109 -1.978211 0.000000
vt -8.009613 -3.857226 0.000000
vt -6.950482 -5.542824 0.000000
vt -5.542824 -6.950482 0.000000
vt -3.857226 -8.009613 0.000000
vt -1.978211 -8.667109 0.000000
vn -2.540000 0.000000 0.000000
vn -2.476317 0.000000 -0.565203
vn -2.288461 0.000000 -1.102065
vn -1.985852 0.000000 -1.583664
vn -1.583664 0.000000 -1.985852
vn -1.102065 0.000000 -2.288461
vn -0.565203 0.000000 -2.476317
vn 0.000000 0.000000 -2.540000
vn 0.565203 0.000000 -2.476317
vn 1.102065 0.000000 -2.288461
vn 1.583664 0.000000 -1.985852
vn 1.985852 0.000000 -1.583664
vn 2.288461 0.000000 -1.102065
vn 2.476317 0.000000 -0.565203
vn 2.540000 0.000000 0.000000
vn 2.476317 0.000000 0.565203
vn 2.288461 0.000000 1.102065
vn 1.985852 0.000000 1.583664
vn 1.583664 0.000000 1.985852
vn 1.102065 0.000000 2.288461
vn 0.565203 0.000000 2.476317
vn 0.000000 0.000000 2.540000
vn -0.565203 0.000000 2.476317
vn -1.102065 0.000000 2.288461
vn -1.583664 0.000000 1.985852
vn -1.985852 0.000000 1.583664
vn -2.288461 0.000000 1.102065
vn -2.476317 0.000000 0.565203
vn -2.540000 0.000000 0.000000
vn -2.476317 0.000000 0.565203
vn -2.288461 0.000000 1.102065
vn -1.985852 0.000000 1.583664
vn -1.583664 0.000000 1.985852
vn -1.102065 0.000000 2.288461
vn -0.565203 0.000000 2.476317
vn 0.000000 0.000000 2.540000
vn 0.565203 0.000000 2.476317
vn 1.102065 0.000000 2.288461
vn 1.583664 0.000000 1.985852
vn 1.985852 0.000000 1.583664
vn 2.288461 0.000000 1.102065
vn 2.476317 0.000000 0.565203
vn 2.540000 0.000000 0.000000
vn 2.476317 0.000000 -0.565203
vn 2.288461 0.000000 -1.102065
vn 1.985852 0.000000 -1.583664
vn 1.583664 0.000000 -1.985852
vn 1.102065 0.000000 -2.288461
vn 0.565203 0.000000 -2.476317
vn 0.000000 0.000000 -2.540000
vn -0.565203 0.000000 -2.476317
vn -1.102065 0.000000 -2.288461
vn -1.583664 0.000000 -1.985852
vn -1.985852 0.000000 -1.583664
vn -2.288461 0.000000 -1.102065
vn -2.476317 0.000000 -0.565203
vn 2.540000 0.000000 0.000000
vn 2.540000 0.000000 0.000000
vn 0.000000 2.540000 0.000000
vn 0.000000 2.540000 0.000000
vn 0.000000 2.540000 0.000000
vn 0.000000 2.540000 0.000000
vn 0.000000 2.540000 0.000000
vn 0.000000 2.540000 0.000000
vn 0.000000 2.540000 0.000000
vn 0.000000 2.540000 0.000000
vn 0.000000 2.540000 0.000000
vn 0.000000 2.540000 0.000000
vn 0.000000 2.540000 0.000000
vn 0.000000 2.540000 0.000000
vn 0.000000 2.540000 0.000000
vn 0.000000 2.540000 0.000000
vn 0.000000 2.540000 0.000000
vn 0.000000 2.540000 0.000000
vn 0.000000 2.540000 0.000000
vn 0.000000 2.540000 0.000000
vn 0.000000 2.540000 0.000000
vn 0.000000 2.540000 0.000000
vn 0.000000 2.540000 0.000000
vn 0.000000 2.540000 0.000000
vn 0.000000 2.540000 0.000000
vn 0.000000 2.540000 0.000000
vn 0.000000 2.540000 0.000000
vn 0.000000 2.540000 0.000000
vn 0.000000 2.540000 0.000000
vn 0.000000 2.540000 0.000000
vn 0.000000 -2.540000 0.000000
vn 0.000000 -2.540000 0.000000
vn 0.000000 -2.540000 0.000000
vn 0.000000 -2.540000 0.000000
vn 0.000000 -2.540000 0.000000
vn 0.000000 -2.540000 0.000000
vn 0.000000 -2.540000 0.000000
vn 0.000000 -2.540000 0.000000
vn 0.000000 -2.540000 0.000000
vn 0.000000 -2.540000 0.000000
vn 0.000000 -2.540000 0.000000
vn 0.000000 -2.540000 0.000000
vn 0.000000 -2.540000 0.000000
vn 0.000000 -2.540000 0.000000
vn 0.000000 -2.540000 0.000000
vn 0.000000 -2.540000 0.000000
vn 0.000000 -2.540000 0.000000
vn 0.000000 -2.540000 0.000000
vn 0.000000 -2.540000 0.000000
vn 0.000000 -2.540000 0.000000
vn 0.000000 -2.540000 0.000000
vn 0.000000 -2.540000 0.000000
vn 0.000000 -2.540000 0.000000
vn 0.000000 -2.540000 0.000000
vn 0.000000 -2.540000 0.000000
vn 0.000000 -2.540000 0.000000
vn 0.000000 -2.540000 0.000000
vn 0.000000 -2.540000 0.000000
usemtl 191,191,191
f 5/2/2 3/56/56 2/1/1
f 2/1/1 3/56/56 1/29/29
f 2/1/1 1/29/29 6/28/28
f 6/28/28 1/29/29 4/30/30
f 6/28/28 4/30/30 10/27/27
f 10/27/27 4/30/30 8/31/31
f 10/27/27 8/31/31 14/26/26
f 14/26/26 8/31/31 12/32/32
f 14/26/26 12/32/32 18/25/25
f 18/25/25 12/32/32 16/33/33
f 18/25/25 16/33/33 22/24/24
f 22/24/24 16/33/33 20/34/34
f 22/24/24 20/34/34 26/23/23
f 26/23/23 20/34/34 24/35/35
f 26/23/23 24/35/35 30/22/22
f 30/22/22 24/35/35 28/36/36
f 30/22/22 28/36/36 34/21/21
f 34/21/21 28/36/36 32/37/37
f 34/21/21 32/37/37 38/20/20
f 38/20/20 32/37/37 36/38/38
f 38/20/20 36/38/38 42/19/19
f 42/19/19 36/38/38 40/39/39
f 42/19/19 40/39/39 46/18/18
f 46/18/18 40/39/39 44/40/40
f 46/18/18 44/40/40 50/17/17
f 50/17/17 44/40/40 48/41/41
f 50/17/17 48/41/41 54/16/16
f 54/16/16 48/41/41 52/42/42
f 54/16/16 52/42/42 56/15/15
f 56/15/15 52/42/42 55/57/57
f 56/58/58 55/43/43 53/14/14
f 53/14/14 55/43/43 51/44/44
f 53/14/14 51/44/44 49/13/13
f 49/13/13 51/44/44 47/45/45
f 49/13/13 47/45/45 45/12/12
f 45/12/12 47/45/45 43/46/46
f 45/12/12 43/46/46 41/11/11
f 41/11/11 43/46/46 39/47/47
f 41/11/11 39/47/47 37/10/10
f 37/10/10 39/47/47 35/48/48
f 37/10/10 35/48/48 33/9/9
f 33/9/9 35/48/48 31/49/49
f 33/9/9 31/49/49 29/8/8
f 29/8/8 31/49/49 27/50/50
f 29/8/8 27/50/50 25/7/7
f 25/7/7 27/50/50 23/51/51
f 25/7/7 23/51/51 21/6/6
f 21/6/6 23/51/51 19/52/52
f 21/6/6 19/52/52 17/5/5
f 17/5/5 19/52/52 15/53/53
f 17/5/5 15/53/53 13/4/4
f 13/4/4 15/53/53 11/54/54
f 13/4/4 11/54/54 9/3/3
f 9/3/3 11/54/54 7/55/55
f 9/3/3 7/55/55 5/2/2
f 5/2/2 7/55/55 3/56/56
f 2/59/59 6/60/60 5/86/86
f 5/86/86 6/60/60 9/85/85
f 9/85/85 6/60/60 10/61/61
f 9/85/85 10/61/61 13/84/84
f 13/84/84 10/61/61 14/62/62
f 13/84/84 14/62/62 17/83/83
f 17/83/83 14/62/62 18/63/63
f 17/83/83 18/63/63 21/82/82
f 21/82/82 18/63/63 22/64/64
f 21/82/82 22/64/64 25/81/81
f 25/81/81 22/64/64 26/65/65
f 25/81/81 26/65/65 29/80/80
f 29/80/80 26/65/65 30/66/66
f 29/80/80 30/66/66 33/79/79
f 33/79/79 30/66/66 34/67/67
f 33/79/79 34/67/67 37/78/78
f 37/78/78 34/67/67 38/68/68
f 37/78/78 38/68/68 41/77/77
f 41/77/77 38/68/68 42/69/69
f 41/77/77 42/69/69 45/76/76
f 45/76/76 42/69/69 46/70/70
f 45/76/76 46/70/70 49/75/75
f 49/75/75 46/70/70 50/71/71
f 49/75/75 50/71/71 53/74/74
f 53/74/74 50/71/71 54/72/72
f 53/74/74 54/72/72 56/73/73
f 1/87/87 3/88/88 4/114/114
f 4/114/114 3/88/88 8/113/113
f 8/113/113 3/88/88 7/89/89
f 8/113/113 7/89/89 12/112/112
f 12/112/112 7/89/89 11/90/90
f 12/112/112 11/90/90 16/111/111
f 16/111/111 11/90/90 15/91/91
f 16/111/111 15/91/91 20/110/110
f 20/110/110 15/91/91 19/92/92
f 20/110/110 19/92/92 24/109/109
f 24/109/109 19/92/92 23/93/93
f 24/109/109 23/93/93 28/108/108
f 28/108/108 23/93/93 27/94/94
f 28/108/108 27/94/94 32/107/107
f 32/107/107 27/94/94 31/95/95
f 32/107/107 31/95/95 36/106/106
f 36/106/106 31/95/95 35/96/96
f 36/106/106 35/96/96 40/105/105
f 40/105/105 35/96/96 39/97/97
f 40/105/105 39/97/97 44/104/104
f 44/104/104 39/97/97 43/98/98
f 44/104/104 43/98/98 48/103/103
f 48/103/103 43/98/98 47/99/99
f 48/103/103 47/99/99 52/102/102
f 52/102/102 47/99/99 51/100/100
f 52/102/102 51/100/100 55/101/101

# 56 vertices
# 114 texture params
# 114 normals
# 108 facets

# 1 groups
